G04*
G04 #@! TF.GenerationSoftware,Altium Limited,Altium Designer,25.1.2 (22)*
G04*
G04 Layer_Physical_Order=1*
G04 Layer_Color=255*
%FSLAX44Y44*%
%MOMM*%
G71*
G04*
G04 #@! TF.SameCoordinates,94B53329-3CDA-4FED-B36A-321C29857B18*
G04*
G04*
G04 #@! TF.FilePolarity,Positive*
G04*
G01*
G75*
%ADD11C,0.2500*%
%ADD21R,0.8000X0.8000*%
%ADD22R,0.5000X0.4000*%
%ADD23R,1.6039X1.8062*%
%ADD25R,12.3200X3.8250*%
%ADD26R,4.1500X1.9000*%
%ADD27R,0.6500X0.6500*%
%ADD28R,1.5000X1.4000*%
%ADD29R,0.4682X0.4725*%
%ADD30R,0.5200X0.5600*%
%ADD31R,0.4725X0.5596*%
%ADD32R,0.8000X0.6000*%
%ADD33R,0.4500X0.4500*%
%ADD34R,0.7154X0.6725*%
%ADD35R,0.3000X0.2500*%
%ADD36R,0.5725X0.6393*%
%ADD37R,0.6600X0.6200*%
%ADD38R,0.9000X1.0000*%
%ADD52R,1.7000X1.7000*%
%ADD53C,1.7000*%
%ADD57C,1.1000*%
%ADD58R,1.1000X1.1000*%
%ADD59C,1.5500*%
%ADD60R,1.5500X1.5500*%
%ADD61C,1.3000*%
%ADD62R,1.3000X1.3000*%
%ADD65R,1.3000X1.3000*%
%ADD72R,1.1000X1.1000*%
%ADD73C,0.5080*%
%ADD74C,1.5000*%
%ADD75C,0.6000*%
%ADD76C,0.5000*%
G04:AMPARAMS|DCode=77|XSize=1.65mm|YSize=2.4mm|CornerRadius=0.0495mm|HoleSize=0mm|Usage=FLASHONLY|Rotation=270.000|XOffset=0mm|YOffset=0mm|HoleType=Round|Shape=RoundedRectangle|*
%AMROUNDEDRECTD77*
21,1,1.6500,2.3010,0,0,270.0*
21,1,1.5510,2.4000,0,0,270.0*
1,1,0.0990,-1.1505,-0.7755*
1,1,0.0990,-1.1505,0.7755*
1,1,0.0990,1.1505,0.7755*
1,1,0.0990,1.1505,-0.7755*
%
%ADD77ROUNDEDRECTD77*%
G04:AMPARAMS|DCode=78|XSize=0.28mm|YSize=0.85mm|CornerRadius=0.0504mm|HoleSize=0mm|Usage=FLASHONLY|Rotation=0.000|XOffset=0mm|YOffset=0mm|HoleType=Round|Shape=RoundedRectangle|*
%AMROUNDEDRECTD78*
21,1,0.2800,0.7492,0,0,0.0*
21,1,0.1792,0.8500,0,0,0.0*
1,1,0.1008,0.0896,-0.3746*
1,1,0.1008,-0.0896,-0.3746*
1,1,0.1008,-0.0896,0.3746*
1,1,0.1008,0.0896,0.3746*
%
%ADD78ROUNDEDRECTD78*%
G04:AMPARAMS|DCode=79|XSize=2.51mm|YSize=2.55mm|CornerRadius=0.1004mm|HoleSize=0mm|Usage=FLASHONLY|Rotation=90.000|XOffset=0mm|YOffset=0mm|HoleType=Round|Shape=RoundedRectangle|*
%AMROUNDEDRECTD79*
21,1,2.5100,2.3492,0,0,90.0*
21,1,2.3092,2.5500,0,0,90.0*
1,1,0.2008,1.1746,1.1546*
1,1,0.2008,1.1746,-1.1546*
1,1,0.2008,-1.1746,-1.1546*
1,1,0.2008,-1.1746,1.1546*
%
%ADD79ROUNDEDRECTD79*%
G04:AMPARAMS|DCode=80|XSize=0.7mm|YSize=0.4mm|CornerRadius=0.1mm|HoleSize=0mm|Usage=FLASHONLY|Rotation=90.000|XOffset=0mm|YOffset=0mm|HoleType=Round|Shape=RoundedRectangle|*
%AMROUNDEDRECTD80*
21,1,0.7000,0.2000,0,0,90.0*
21,1,0.5000,0.4000,0,0,90.0*
1,1,0.2000,0.1000,0.2500*
1,1,0.2000,0.1000,-0.2500*
1,1,0.2000,-0.1000,-0.2500*
1,1,0.2000,-0.1000,0.2500*
%
%ADD80ROUNDEDRECTD80*%
%ADD81C,0.1780*%
%ADD82C,0.7000*%
%ADD83C,1.0000*%
%ADD84C,0.8000*%
%ADD85R,0.7000X0.2800*%
%ADD86R,0.7000X0.2800*%
%ADD87C,2.7000*%
%ADD88C,4.0500*%
%ADD89C,6.0000*%
%ADD90C,1.8000*%
%ADD91R,1.8000X1.8000*%
%ADD92C,1.9500*%
G04:AMPARAMS|DCode=93|XSize=1.95mm|YSize=1.95mm|CornerRadius=0.4875mm|HoleSize=0mm|Usage=FLASHONLY|Rotation=0.000|XOffset=0mm|YOffset=0mm|HoleType=Round|Shape=RoundedRectangle|*
%AMROUNDEDRECTD93*
21,1,1.9500,0.9750,0,0,0.0*
21,1,0.9750,1.9500,0,0,0.0*
1,1,0.9750,0.4875,-0.4875*
1,1,0.9750,-0.4875,-0.4875*
1,1,0.9750,-0.4875,0.4875*
1,1,0.9750,0.4875,0.4875*
%
%ADD93ROUNDEDRECTD93*%
%ADD94R,1.7000X1.7000*%
%ADD95R,1.5000X1.5000*%
%ADD96R,1.5500X1.5500*%
G36*
X355600Y586751D02*
X331847D01*
Y587209D01*
X321308D01*
Y586751D01*
X314738D01*
Y590837D01*
X305344D01*
Y596353D01*
X304800Y596969D01*
Y622834D01*
X355600D01*
Y586751D01*
D02*
G37*
G36*
X330200Y543562D02*
X316974D01*
X315198Y543566D01*
Y543795D01*
X314436D01*
Y544930D01*
X310303D01*
X306171D01*
Y543795D01*
X305409D01*
Y543566D01*
X303633Y543562D01*
X291059D01*
X290829Y543799D01*
X286134D01*
Y553799D01*
X289242D01*
X288858Y554373D01*
X288803Y554410D01*
X288371Y556416D01*
X288424Y556639D01*
X288937Y557879D01*
Y558800D01*
X330200D01*
Y543562D01*
D02*
G37*
G36*
X303065Y529259D02*
Y525227D01*
X312597D01*
Y515227D01*
X303065D01*
Y511209D01*
X287079D01*
X287030Y512967D01*
X288019Y513164D01*
X288858Y513724D01*
X289242Y514299D01*
X286134D01*
Y524299D01*
X289242D01*
X288858Y524873D01*
X289301Y525605D01*
X289438Y526294D01*
Y528774D01*
X295281D01*
X296253Y529177D01*
X296623Y530070D01*
X301623D01*
X303065Y529259D01*
D02*
G37*
G36*
X285966Y501194D02*
X286248D01*
X286479Y499511D01*
Y487220D01*
X274108D01*
Y500707D01*
X275684Y501194D01*
Y501194D01*
X275966D01*
Y506476D01*
X285966D01*
Y501194D01*
D02*
G37*
G36*
X797445Y604452D02*
X796197Y603185D01*
X585668D01*
X562048Y580803D01*
X636501Y506349D01*
X637749Y426237D01*
X592142Y424644D01*
X590897Y425914D01*
X591359Y434270D01*
X592400Y434833D01*
X593182Y435034D01*
X594879Y434579D01*
X596862D01*
X598778Y435092D01*
X600495Y436084D01*
X601523Y437111D01*
X595871D01*
Y447111D01*
X601523D01*
X600495Y448138D01*
X598778Y449130D01*
X596862Y449643D01*
X594879D01*
X593975Y449401D01*
X592264Y450664D01*
X593777Y478050D01*
X595423Y478722D01*
X595424Y478722D01*
X596471Y477765D01*
X597206Y477094D01*
X599267Y474920D01*
X602453Y471560D01*
X602453Y472301D01*
X598518Y475895D01*
X597205Y477094D01*
X594282Y480177D01*
X592091Y482488D01*
Y483002D01*
X591603D01*
X590319Y484356D01*
X590738Y484775D01*
X591629Y486319D01*
X592091Y488041D01*
Y489823D01*
X591629Y491545D01*
X590738Y493089D01*
X589478Y494350D01*
X587934Y495241D01*
X586212Y495702D01*
X584429D01*
X582707Y495241D01*
X581164Y494350D01*
X579811Y495438D01*
X516590Y562111D01*
X548665Y594186D01*
X548374Y637108D01*
X549624Y638372D01*
X796934Y639428D01*
X797445Y604452D01*
D02*
G37*
G36*
X229431Y480957D02*
X204843Y456370D01*
X203200Y457050D01*
Y482600D01*
X228750D01*
X229431Y480957D01*
D02*
G37*
G36*
X267352Y507278D02*
X267980Y505391D01*
X267601Y505012D01*
X267124Y504298D01*
X266956Y503455D01*
X267124Y502612D01*
X267601Y501898D01*
X268316Y501420D01*
X269159Y501253D01*
X270001Y501420D01*
X270716Y501898D01*
X271099Y502281D01*
X271492Y502267D01*
X272918Y501585D01*
X272896Y501352D01*
X272892Y501349D01*
X272861Y501016D01*
X272733Y500707D01*
Y487220D01*
X273136Y486248D01*
X274108Y485846D01*
Y482600D01*
X482600D01*
Y417154D01*
X315959D01*
Y423072D01*
X315556Y424044D01*
X314584Y424446D01*
X298949D01*
X297998Y426225D01*
X298092Y426364D01*
X298327Y427549D01*
Y434095D01*
X283486D01*
X268644D01*
Y427549D01*
X268880Y426364D01*
X268973Y426225D01*
X268023Y424446D01*
X228600D01*
X226849Y425588D01*
X226849Y425588D01*
Y435603D01*
X226673Y436490D01*
X226170Y437242D01*
X225418Y437745D01*
X224531Y437921D01*
X203200D01*
Y441193D01*
X204035D01*
X204921Y441369D01*
X204921Y441369D01*
X205672Y441870D01*
X206174Y442621D01*
X206350Y443507D01*
Y446007D01*
X211035D01*
Y451499D01*
X210535Y451598D01*
X208815D01*
X208330Y452265D01*
X208009Y453307D01*
X235017Y480314D01*
X238643D01*
X239486Y480482D01*
X240200Y480960D01*
X241841Y482600D01*
X254000D01*
Y494759D01*
X266623Y507383D01*
X267352Y507278D01*
D02*
G37*
G36*
X314584Y264863D02*
X314059Y263303D01*
X312806Y263303D01*
X309007D01*
Y252240D01*
Y241177D01*
X312806D01*
X314059Y241177D01*
X314584Y239617D01*
Y228600D01*
X228600D01*
Y241860D01*
X230378Y242399D01*
X231068Y241366D01*
X234172Y238262D01*
X237822Y235824D01*
X241877Y234144D01*
X243376Y233846D01*
Y255570D01*
Y277294D01*
X241877Y276996D01*
X237822Y275316D01*
X234172Y272877D01*
X231068Y269774D01*
X230378Y268741D01*
X228600Y269280D01*
Y423072D01*
X269404D01*
X269490Y422979D01*
X269837Y422145D01*
X273736D01*
Y417145D01*
X278736D01*
D01*
X285236D01*
Y411653D01*
X285736Y411553D01*
X287238D01*
X287806Y411456D01*
X288881Y409968D01*
Y409756D01*
X289461Y408355D01*
X290533Y407284D01*
X291933Y406704D01*
X293449D01*
X294849Y407284D01*
X295921Y408355D01*
X296501Y409756D01*
Y411271D01*
X295921Y412672D01*
X295847Y412746D01*
X295872Y413008D01*
X296374Y413759D01*
X296550Y414645D01*
Y419645D01*
X296374Y420530D01*
X295872Y421281D01*
X295853Y421294D01*
X296393Y423072D01*
X314584D01*
Y264863D01*
D02*
G37*
G36*
X656634Y354028D02*
X656724Y352252D01*
X599326Y294855D01*
Y280028D01*
X577438D01*
X577438Y214011D01*
X499065Y135638D01*
Y69974D01*
X449142Y69285D01*
X447876Y70533D01*
Y125047D01*
X557669Y234839D01*
Y293766D01*
X596867Y331774D01*
X600415Y335215D01*
X602031Y333599D01*
X608909D01*
Y340477D01*
X607351Y342035D01*
X609907Y345029D01*
X610138Y344895D01*
X612623Y344229D01*
X615195D01*
X617680Y344895D01*
X619908Y346181D01*
X621727Y348000D01*
X623013Y350228D01*
X623679Y352713D01*
Y355285D01*
X623013Y357770D01*
X622115Y359325D01*
X633611Y372788D01*
X656634Y354028D01*
D02*
G37*
G36*
X758489Y172654D02*
X749274D01*
Y176043D01*
X744492D01*
Y166261D01*
Y156479D01*
X749274D01*
Y159868D01*
X758489D01*
Y147919D01*
X758661Y147747D01*
X713445Y99780D01*
Y86886D01*
Y74164D01*
X675450D01*
Y99780D01*
X722729Y147059D01*
Y181272D01*
X722901Y181444D01*
X758489D01*
Y172654D01*
D02*
G37*
G36*
X201825Y457050D02*
X201930Y456797D01*
Y456524D01*
X202123Y456331D01*
X202228Y456078D01*
X202500Y455251D01*
X202533Y454060D01*
X201368Y452895D01*
X200891Y452181D01*
X200723Y451338D01*
Y450361D01*
X200398Y450144D01*
X199897Y449393D01*
X199720Y448507D01*
Y443507D01*
X199897Y442621D01*
X200398Y441870D01*
X201149Y441369D01*
X201800Y441239D01*
X201825Y441193D01*
Y438698D01*
X201039D01*
X199854Y438463D01*
X198850Y437792D01*
X198179Y436787D01*
X197943Y435603D01*
Y429057D01*
X212785D01*
Y424057D01*
X217785D01*
Y409415D01*
X224531D01*
X225447Y409598D01*
X226263Y409242D01*
X227225Y408521D01*
Y269280D01*
X227355Y268968D01*
X227388Y268632D01*
X227548Y268500D01*
X227628Y268308D01*
X227940Y268179D01*
X228201Y267964D01*
X228600Y267843D01*
Y264223D01*
X228398Y263845D01*
X227167Y259788D01*
X226752Y255570D01*
X227167Y251351D01*
X228398Y247295D01*
X228600Y246917D01*
Y243296D01*
X228201Y243175D01*
X227940Y242961D01*
X227628Y242832D01*
X227548Y242640D01*
X227388Y242508D01*
X227355Y242172D01*
X227225Y241860D01*
Y228600D01*
X227628Y227628D01*
X228600Y227225D01*
X278025D01*
Y152400D01*
X203185D01*
X202932Y154965D01*
X202088Y157750D01*
X200716Y160315D01*
X198871Y162564D01*
X196621Y164410D01*
X194056Y165782D01*
X191271Y166626D01*
X188376Y166911D01*
X185481Y166626D01*
X182696Y165782D01*
X180131Y164410D01*
X177882Y162564D01*
X176036Y160315D01*
X174664Y157750D01*
X173820Y154965D01*
X173567Y152400D01*
X161329D01*
Y457200D01*
X201825D01*
Y457050D01*
D02*
G37*
G36*
X613074Y137121D02*
X599829D01*
X565556Y102847D01*
Y76276D01*
Y73305D01*
X564292Y72054D01*
X555252Y72156D01*
X534661Y72047D01*
X533400Y73301D01*
Y75912D01*
Y127000D01*
X573154D01*
X573546Y126608D01*
X579223Y132285D01*
Y182959D01*
X613074D01*
Y137121D01*
D02*
G37*
G36*
X711751Y147129D02*
X664519Y99897D01*
Y73755D01*
X663578Y73365D01*
X626723D01*
X625546Y74698D01*
X625568Y74871D01*
Y96887D01*
X676186Y147505D01*
X676186D01*
Y181565D01*
X711751D01*
Y147129D01*
D02*
G37*
G36*
X666325Y148319D02*
X616225Y98219D01*
Y73062D01*
X614914Y71859D01*
X582874D01*
X582728Y80160D01*
Y100986D01*
X626566Y144824D01*
Y180942D01*
X627002Y181379D01*
X666325D01*
Y148319D01*
D02*
G37*
G36*
X478038Y235092D02*
X355600D01*
Y50800D01*
X279400D01*
Y227225D01*
X314584D01*
X315556Y227628D01*
X315959Y228600D01*
Y239407D01*
X315961Y239621D01*
X316445Y240473D01*
X317385Y241177D01*
X321030D01*
Y252240D01*
X326030D01*
D01*
X321030D01*
Y263303D01*
X317385D01*
X316445Y264007D01*
X315961Y264859D01*
X315959Y265073D01*
Y355600D01*
X478038D01*
Y235092D01*
D02*
G37*
%LPC*%
G36*
X332609Y600971D02*
X331577D01*
Y600939D01*
X332609D01*
Y600971D01*
D02*
G37*
G36*
X321578D02*
X320546D01*
Y600939D01*
X321578D01*
Y600971D01*
D02*
G37*
G36*
X332609Y590939D02*
X331577D01*
Y590907D01*
X332609D01*
Y590939D01*
D02*
G37*
G36*
X321578D02*
X320546D01*
Y590907D01*
X321578D01*
Y590939D01*
D02*
G37*
G36*
X766789Y629152D02*
X762007D01*
Y624370D01*
X766789D01*
Y629152D01*
D02*
G37*
G36*
X715989D02*
X711207D01*
Y624370D01*
X715989D01*
Y629152D01*
D02*
G37*
G36*
X665189D02*
X660407D01*
Y624370D01*
X665189D01*
Y629152D01*
D02*
G37*
G36*
X614389D02*
X609607D01*
Y624370D01*
X614389D01*
Y629152D01*
D02*
G37*
G36*
X752007D02*
X747225D01*
Y624370D01*
X752007D01*
Y629152D01*
D02*
G37*
G36*
X701207D02*
X696425D01*
Y624370D01*
X701207D01*
Y629152D01*
D02*
G37*
G36*
X650407D02*
X645625D01*
Y624370D01*
X650407D01*
Y629152D01*
D02*
G37*
G36*
X599607D02*
X594825D01*
Y624370D01*
X599607D01*
Y629152D01*
D02*
G37*
G36*
X766789Y614370D02*
X762007D01*
Y609588D01*
X766789D01*
Y614370D01*
D02*
G37*
G36*
X752007D02*
X747225D01*
Y609588D01*
X752007D01*
Y614370D01*
D02*
G37*
G36*
X715989D02*
X711207D01*
Y609588D01*
X715989D01*
Y614370D01*
D02*
G37*
G36*
X701207D02*
X696425D01*
Y609588D01*
X701207D01*
Y614370D01*
D02*
G37*
G36*
X665189D02*
X660407D01*
Y609588D01*
X665189D01*
Y614370D01*
D02*
G37*
G36*
X650407D02*
X645625D01*
Y609588D01*
X650407D01*
Y614370D01*
D02*
G37*
G36*
X614389D02*
X609607D01*
Y609588D01*
X614389D01*
Y614370D01*
D02*
G37*
G36*
X599607D02*
X594825D01*
Y609588D01*
X599607D01*
Y614370D01*
D02*
G37*
G36*
X548669Y574171D02*
Y572206D01*
X550634D01*
X550496Y572445D01*
X548908Y574034D01*
X548669Y574171D01*
D02*
G37*
G36*
X538669D02*
X538430Y574034D01*
X536841Y572445D01*
X536703Y572206D01*
X538669D01*
Y574171D01*
D02*
G37*
G36*
X550634Y562206D02*
X548669D01*
Y560241D01*
X548908Y560379D01*
X550496Y561968D01*
X550634Y562206D01*
D02*
G37*
G36*
X538669D02*
X536703D01*
X536841Y561968D01*
X538430Y560379D01*
X538669Y560241D01*
Y562206D01*
D02*
G37*
G36*
X471267Y465599D02*
X412635D01*
Y449442D01*
X471267D01*
Y465599D01*
D02*
G37*
G36*
X402635D02*
X344003D01*
Y449442D01*
X402635D01*
Y465599D01*
D02*
G37*
G36*
X295232Y453736D02*
X288486D01*
Y444095D01*
X298327D01*
Y450641D01*
X298092Y451825D01*
X297421Y452830D01*
X296416Y453501D01*
X295232Y453736D01*
D02*
G37*
G36*
X278486D02*
X271740D01*
X270555Y453501D01*
X269551Y452830D01*
X268880Y451825D01*
X268644Y450641D01*
Y444095D01*
X278486D01*
Y453736D01*
D02*
G37*
G36*
X471267Y439442D02*
X412635D01*
Y423285D01*
X471267D01*
Y439442D01*
D02*
G37*
G36*
X402635D02*
X344003D01*
Y423285D01*
X402635D01*
Y439442D01*
D02*
G37*
G36*
X287965Y368141D02*
X270183D01*
Y361609D01*
X287965D01*
Y368141D01*
D02*
G37*
G36*
X260183D02*
X242401D01*
Y361609D01*
X260183D01*
Y368141D01*
D02*
G37*
G36*
X287965Y351609D02*
X270183D01*
Y345077D01*
X287965D01*
Y351609D01*
D02*
G37*
G36*
X260183D02*
X242401D01*
Y345077D01*
X260183D01*
Y351609D01*
D02*
G37*
G36*
X253376Y277294D02*
Y260570D01*
X270100D01*
X269802Y262069D01*
X268122Y266124D01*
X265684Y269774D01*
X262580Y272877D01*
X258930Y275316D01*
X254875Y276996D01*
X253376Y277294D01*
D02*
G37*
G36*
X299007Y263303D02*
X293956D01*
Y257240D01*
X299007D01*
Y263303D01*
D02*
G37*
G36*
Y247240D02*
X293956D01*
Y241177D01*
X299007D01*
Y247240D01*
D02*
G37*
G36*
X270100Y250570D02*
X253376D01*
Y233846D01*
X254875Y234144D01*
X258930Y235824D01*
X262580Y238262D01*
X265684Y241366D01*
X268122Y245015D01*
X269802Y249070D01*
X270100Y250570D01*
D02*
G37*
G36*
X618909Y337874D02*
Y333599D01*
X623183D01*
X622337Y335066D01*
X620376Y337027D01*
X618909Y337874D01*
D02*
G37*
G36*
X623183Y323599D02*
X618909D01*
Y319325D01*
X620376Y320172D01*
X622337Y322132D01*
X623183Y323599D01*
D02*
G37*
G36*
X608909D02*
X604634D01*
X605481Y322132D01*
X607442Y320172D01*
X608909Y319325D01*
Y323599D01*
D02*
G37*
G36*
X550323Y209788D02*
Y207822D01*
X552288D01*
X552151Y208061D01*
X550562Y209650D01*
X550323Y209788D01*
D02*
G37*
G36*
X540323D02*
X540084Y209650D01*
X538496Y208061D01*
X538358Y207822D01*
X540323D01*
Y209788D01*
D02*
G37*
G36*
X552288Y197823D02*
X550323D01*
Y195857D01*
X550562Y195995D01*
X552151Y197584D01*
X552288Y197823D01*
D02*
G37*
G36*
X540323D02*
X538358D01*
X538496Y197584D01*
X540084Y195995D01*
X540323Y195857D01*
Y197823D01*
D02*
G37*
G36*
X476411Y95552D02*
Y89834D01*
X482129D01*
X480839Y92069D01*
X478645Y94262D01*
X476411Y95552D01*
D02*
G37*
G36*
X466411D02*
X464176Y94262D01*
X461983Y92069D01*
X460693Y89834D01*
X466411D01*
Y95552D01*
D02*
G37*
G36*
X482129Y79834D02*
X476411D01*
Y74117D01*
X478645Y75406D01*
X480839Y77600D01*
X482129Y79834D01*
D02*
G37*
G36*
X466411D02*
X460693D01*
X461983Y77600D01*
X464176Y75406D01*
X466411Y74117D01*
Y79834D01*
D02*
G37*
G36*
X734492Y176043D02*
X729709D01*
Y171261D01*
X734492D01*
Y176043D01*
D02*
G37*
G36*
Y161261D02*
X729709D01*
Y156479D01*
X734492D01*
Y161261D01*
D02*
G37*
G36*
X703353Y97316D02*
Y93041D01*
X707627D01*
X706780Y94508D01*
X704819Y96469D01*
X703353Y97316D01*
D02*
G37*
G36*
X693353D02*
X691886Y96469D01*
X689925Y94508D01*
X689078Y93041D01*
X693353D01*
Y97316D01*
D02*
G37*
G36*
X707627Y83041D02*
X703353D01*
Y78767D01*
X704819Y79614D01*
X706780Y81575D01*
X707627Y83041D01*
D02*
G37*
G36*
X693353D02*
X689078D01*
X689925Y81575D01*
X691886Y79614D01*
X693353Y78767D01*
Y83041D01*
D02*
G37*
G36*
X207785Y419057D02*
X197943D01*
Y412511D01*
X198179Y411326D01*
X198850Y410322D01*
X199854Y409651D01*
X201039Y409415D01*
X207785D01*
Y419057D01*
D02*
G37*
G36*
X218465Y368141D02*
X200683D01*
Y361609D01*
X218465D01*
Y368141D01*
D02*
G37*
G36*
X190683D02*
X172901D01*
Y361609D01*
X190683D01*
Y368141D01*
D02*
G37*
G36*
X218465Y351609D02*
X200683D01*
Y345077D01*
X218465D01*
Y351609D01*
D02*
G37*
G36*
X190683D02*
X172901D01*
Y345077D01*
X190683D01*
Y351609D01*
D02*
G37*
G36*
X188376Y301911D02*
X185481Y301626D01*
X182696Y300782D01*
X180131Y299410D01*
X177882Y297564D01*
X176036Y295315D01*
X174664Y292750D01*
X173820Y289965D01*
X173535Y287070D01*
X173820Y284174D01*
X174664Y281390D01*
X176036Y278824D01*
X177882Y276575D01*
X180131Y274730D01*
X182696Y273358D01*
X185481Y272514D01*
X188376Y272228D01*
X191271Y272514D01*
X194056Y273358D01*
X196621Y274730D01*
X198871Y276575D01*
X200716Y278824D01*
X202088Y281390D01*
X202932Y284174D01*
X203218Y287070D01*
X202932Y289965D01*
X202088Y292750D01*
X200716Y295315D01*
X198871Y297564D01*
X196621Y299410D01*
X194056Y300782D01*
X191271Y301626D01*
X188376Y301911D01*
D02*
G37*
G36*
X253376Y205338D02*
Y188570D01*
X270144D01*
X269062Y192138D01*
X266992Y196009D01*
X264208Y199402D01*
X260815Y202186D01*
X256944Y204255D01*
X253376Y205338D01*
D02*
G37*
G36*
X243376D02*
X239808Y204255D01*
X235937Y202186D01*
X232544Y199402D01*
X229760Y196009D01*
X227691Y192138D01*
X226608Y188570D01*
X243376D01*
Y205338D01*
D02*
G37*
G36*
X270144Y178570D02*
X253376D01*
Y161802D01*
X256944Y162884D01*
X260815Y164953D01*
X264208Y167738D01*
X266992Y171131D01*
X269062Y175002D01*
X270144Y178570D01*
D02*
G37*
G36*
X243376D02*
X226608D01*
X227691Y175002D01*
X229760Y171131D01*
X232544Y167738D01*
X235937Y164953D01*
X239808Y162884D01*
X243376Y161802D01*
Y178570D01*
D02*
G37*
G36*
X609484Y176043D02*
X604702D01*
Y171261D01*
X609484D01*
Y176043D01*
D02*
G37*
G36*
X594702D02*
X589920D01*
Y171261D01*
X594702D01*
Y176043D01*
D02*
G37*
G36*
X609484Y161261D02*
X604702D01*
Y156479D01*
X609484D01*
Y161261D01*
D02*
G37*
G36*
X594702D02*
X589920D01*
Y156479D01*
X594702D01*
Y161261D01*
D02*
G37*
G36*
X558885Y98574D02*
X553353D01*
Y93041D01*
X558885D01*
Y98574D01*
D02*
G37*
G36*
X543353D02*
X537821D01*
Y93041D01*
X543353D01*
Y98574D01*
D02*
G37*
G36*
X558885Y83041D02*
X553353D01*
Y77509D01*
X558885D01*
Y83041D01*
D02*
G37*
G36*
X543353D02*
X537821D01*
Y77509D01*
X543353D01*
Y83041D01*
D02*
G37*
G36*
X704133Y174058D02*
X699351D01*
Y169275D01*
X704133D01*
Y174058D01*
D02*
G37*
G36*
X689351D02*
X684569D01*
Y169275D01*
X689351D01*
Y174058D01*
D02*
G37*
G36*
X704133Y159276D02*
X699351D01*
Y154494D01*
X704133D01*
Y159276D01*
D02*
G37*
G36*
X689351D02*
X684569D01*
Y154494D01*
X689351D01*
Y159276D01*
D02*
G37*
G36*
X653353Y97316D02*
Y93041D01*
X657627D01*
X656780Y94508D01*
X654820Y96469D01*
X653353Y97316D01*
D02*
G37*
G36*
X643353D02*
X641886Y96469D01*
X639925Y94508D01*
X639078Y93041D01*
X643353D01*
Y97316D01*
D02*
G37*
G36*
X657627Y83041D02*
X653353D01*
Y78767D01*
X654820Y79614D01*
X656780Y81575D01*
X657627Y83041D01*
D02*
G37*
G36*
X643353D02*
X639078D01*
X639925Y81575D01*
X641886Y79614D01*
X643353Y78767D01*
Y83041D01*
D02*
G37*
G36*
X654624Y176043D02*
X649842D01*
Y171261D01*
X654624D01*
Y176043D01*
D02*
G37*
G36*
X639842D02*
X635060D01*
Y171261D01*
X639842D01*
Y176043D01*
D02*
G37*
G36*
X654624Y161261D02*
X649842D01*
Y156479D01*
X654624D01*
Y161261D01*
D02*
G37*
G36*
X639842D02*
X635060D01*
Y156479D01*
X639842D01*
Y161261D01*
D02*
G37*
G36*
X603353Y97316D02*
Y93041D01*
X607627D01*
X606781Y94508D01*
X604820Y96469D01*
X603353Y97316D01*
D02*
G37*
G36*
X593353D02*
X591886Y96469D01*
X589925Y94508D01*
X589078Y93041D01*
X593353D01*
Y97316D01*
D02*
G37*
G36*
X607627Y83041D02*
X603353D01*
Y78767D01*
X604820Y79614D01*
X606781Y81575D01*
X607627Y83041D01*
D02*
G37*
G36*
X593353D02*
X589078D01*
X589925Y81575D01*
X591886Y79614D01*
X593353Y78767D01*
Y83041D01*
D02*
G37*
G36*
X471267Y303249D02*
X412635D01*
Y287092D01*
X471267D01*
Y303249D01*
D02*
G37*
G36*
X402635D02*
X344003D01*
Y287092D01*
X402635D01*
Y303249D01*
D02*
G37*
G36*
X471267Y277092D02*
X412635D01*
Y260935D01*
X471267D01*
Y277092D01*
D02*
G37*
G36*
X402635D02*
X344003D01*
Y260935D01*
X402635D01*
Y277092D01*
D02*
G37*
G36*
X336082Y263303D02*
X331030D01*
Y257240D01*
X336082D01*
Y263303D01*
D02*
G37*
G36*
Y247240D02*
X331030D01*
Y241177D01*
X336082D01*
Y247240D01*
D02*
G37*
G36*
X307639Y94205D02*
Y89335D01*
X312509D01*
X312275Y89899D01*
X310507Y92203D01*
X308203Y93972D01*
X307639Y94205D01*
D02*
G37*
G36*
X297639D02*
X297075Y93972D01*
X294771Y92203D01*
X293002Y89899D01*
X292769Y89335D01*
X297639D01*
Y94205D01*
D02*
G37*
G36*
X312509Y79335D02*
X307639D01*
Y74465D01*
X308203Y74699D01*
X310507Y76467D01*
X312275Y78772D01*
X312509Y79335D01*
D02*
G37*
G36*
X297639D02*
X292769D01*
X293002Y78772D01*
X294771Y76467D01*
X297075Y74699D01*
X297639Y74465D01*
Y79335D01*
D02*
G37*
%LPD*%
D11*
X720926Y416432D02*
X721925Y417431D01*
X679670Y416432D02*
X720926D01*
D21*
X721925Y402431D02*
D03*
Y417431D02*
D03*
D22*
X250100Y515962D02*
D03*
Y507962D02*
D03*
D23*
X304007Y252240D02*
D03*
X326030D02*
D03*
D25*
X407635Y444442D02*
D03*
Y282092D02*
D03*
D26*
X265183Y356609D02*
D03*
X195683D02*
D03*
D27*
X290967Y506476D02*
D03*
X280966D02*
D03*
D28*
X312597Y520227D02*
D03*
Y501227D02*
D03*
D29*
X283597Y569483D02*
D03*
X291640D02*
D03*
D30*
X268026Y584873D02*
D03*
Y592673D02*
D03*
D31*
X310344Y590837D02*
D03*
Y583312D02*
D03*
D32*
X326578Y582939D02*
D03*
Y595939D02*
D03*
D33*
X257312Y585272D02*
D03*
Y593273D02*
D03*
X245766Y593273D02*
D03*
Y585273D02*
D03*
D34*
X257850Y570853D02*
D03*
X267421D02*
D03*
D35*
X238696Y547851D02*
D03*
Y552601D02*
D03*
D36*
X310303Y540463D02*
D03*
Y548795D02*
D03*
D37*
X321877Y572239D02*
D03*
X313077D02*
D03*
D38*
X679670Y398431D02*
D03*
Y416432D02*
D03*
D52*
X551319Y682964D02*
D03*
X548353Y88041D02*
D03*
D53*
X501318Y682964D02*
D03*
X451318D02*
D03*
X401319D02*
D03*
X598353Y88041D02*
D03*
X648353D02*
D03*
X698353D02*
D03*
X613909Y328599D02*
D03*
Y353999D02*
D03*
D57*
X595871Y442111D02*
D03*
X533222Y425019D02*
D03*
X585321Y488932D02*
D03*
D58*
X583171Y442111D02*
D03*
D59*
X739492Y255062D02*
D03*
X706207Y708170D02*
D03*
X655407D02*
D03*
X757007D02*
D03*
X604607D02*
D03*
X644842Y255062D02*
D03*
X599702D02*
D03*
X694351Y253075D02*
D03*
X781360Y309029D02*
D03*
X806760D02*
D03*
X832160D02*
D03*
D60*
X739492Y166261D02*
D03*
X706207Y619370D02*
D03*
X655407D02*
D03*
X757007D02*
D03*
X604607D02*
D03*
X644842Y166261D02*
D03*
X599702D02*
D03*
X694351Y164275D02*
D03*
D61*
X545323Y202823D02*
D03*
X543669Y567206D02*
D03*
X701541Y516782D02*
D03*
D62*
X495323Y202823D02*
D03*
X493668Y567206D02*
D03*
D65*
X701541Y466782D02*
D03*
D72*
X533222Y437719D02*
D03*
X585321Y476232D02*
D03*
D73*
X736600Y406400D02*
D03*
X325402Y494995D02*
D03*
X296944Y501846D02*
D03*
X245723Y598656D02*
D03*
X237509Y543861D02*
D03*
X259659Y541703D02*
D03*
X311506Y533521D02*
D03*
X228600Y508000D02*
D03*
X269159Y503455D02*
D03*
X281705Y496673D02*
D03*
X292691Y410514D02*
D03*
X296828Y515022D02*
D03*
X297639Y522097D02*
D03*
X299368Y569691D02*
D03*
X285127Y558637D02*
D03*
X241305Y558413D02*
D03*
D74*
X827819Y549865D02*
D03*
X777019Y537165D02*
D03*
X827819Y524465D02*
D03*
X777019Y511765D02*
D03*
X827819Y499065D02*
D03*
X777019Y486365D02*
D03*
X827819Y473665D02*
D03*
X777019Y460965D02*
D03*
X827819Y448265D02*
D03*
X777019Y435565D02*
D03*
X827819Y422865D02*
D03*
X777019Y410165D02*
D03*
X827819Y397465D02*
D03*
X777019Y384765D02*
D03*
X806245Y351373D02*
D03*
X687560Y381514D02*
D03*
D75*
X373161Y346409D02*
D03*
X344141Y345963D02*
D03*
X368250Y314933D02*
D03*
X341090Y314383D02*
D03*
X339834Y329903D02*
D03*
X381000Y330200D02*
D03*
X355600D02*
D03*
X319431Y614523D02*
D03*
X342097Y598354D02*
D03*
X341795Y616034D02*
D03*
X320575Y547548D02*
D03*
X324145Y554304D02*
D03*
X204170Y313983D02*
D03*
X177346Y314689D02*
D03*
X177800Y330200D02*
D03*
X203200D02*
D03*
D76*
X276134Y534049D02*
D03*
X283634Y529049D02*
D03*
Y539049D02*
D03*
X268633D02*
D03*
Y529049D02*
D03*
X283486Y448675D02*
D03*
Y439624D02*
D03*
X273736Y444145D02*
D03*
X293236D02*
D03*
Y435095D02*
D03*
X273736D02*
D03*
X283486Y430574D02*
D03*
X212785Y414477D02*
D03*
Y423527D02*
D03*
X222535Y419007D02*
D03*
X203035D02*
D03*
Y428057D02*
D03*
X222535D02*
D03*
X212785Y432577D02*
D03*
D77*
X276134Y534049D02*
D03*
D78*
X286134Y548799D02*
D03*
X281134D02*
D03*
X276134D02*
D03*
X271133D02*
D03*
X266134D02*
D03*
Y519299D02*
D03*
X271133D02*
D03*
X276134D02*
D03*
X281134D02*
D03*
X286134D02*
D03*
D79*
X283486Y439095D02*
D03*
X212785Y424057D02*
D03*
D80*
X293236Y417145D02*
D03*
X286736D02*
D03*
X280236D02*
D03*
X273736D02*
D03*
X203035Y446007D02*
D03*
X209535D02*
D03*
X216035D02*
D03*
X222535D02*
D03*
D81*
X732631Y402431D02*
X736600Y406400D01*
X721925Y402431D02*
X732631D01*
X319170Y501227D02*
X325402Y494995D01*
X312597Y501227D02*
X319170D01*
X295596Y501846D02*
X296944D01*
X290967Y506476D02*
X295596Y501846D01*
X245723Y598656D02*
X245766Y598612D01*
Y593273D02*
Y598612D01*
X237509Y543861D02*
X238696Y545049D01*
Y547851D01*
X259659Y541703D02*
X265979D01*
X268633Y539049D01*
X310303Y534724D02*
X311506Y533521D01*
X310303Y534724D02*
Y540463D01*
X275048Y509344D02*
Y510831D01*
X276134Y511916D01*
Y519299D01*
X269159Y503455D02*
X275048Y509344D01*
X250063Y508000D02*
X250100Y507962D01*
X228600Y508000D02*
X250063D01*
X202925Y451338D02*
X234104Y482517D01*
X202925Y446116D02*
Y451338D01*
X234104Y482517D02*
X238643D01*
X271133Y515007D01*
Y519299D01*
X292691Y410514D02*
X293236Y411058D01*
Y417145D01*
X280966Y519131D02*
X281134Y519299D01*
X280966Y506476D02*
Y519131D01*
X257312Y570853D02*
Y585272D01*
X266134Y548799D02*
Y551649D01*
X265578Y552159D02*
X265624D01*
X257312Y560425D02*
X265578Y552159D01*
X257312Y560425D02*
Y570853D01*
X265624Y552159D02*
X266134Y551649D01*
X291848Y569691D02*
X299368D01*
X291640Y569483D02*
X291848Y569691D01*
X251539Y585273D02*
Y595773D01*
X253956Y598190D01*
X273530D01*
X288408Y583312D01*
X310344D01*
X251539Y585273D02*
X257311D01*
X321877Y578239D02*
X326578Y582939D01*
X321877Y572239D02*
Y578239D01*
X312836Y572480D02*
Y580384D01*
Y572480D02*
X313077Y572239D01*
X310344Y582876D02*
X312836Y580384D01*
X245766Y585273D02*
X251539D01*
X257311D02*
X257312Y585272D01*
Y593273D02*
X257911Y592673D01*
X268026D01*
X267421Y584267D02*
X268026Y584873D01*
X267421Y570853D02*
Y584267D01*
Y556761D02*
Y570853D01*
Y556761D02*
X271133Y553049D01*
Y548799D02*
Y553049D01*
X276134Y562020D02*
X283597Y569483D01*
X276134Y548799D02*
Y562020D01*
X281134Y548799D02*
X281644Y549309D01*
Y554752D01*
X285127Y558235D01*
Y558637D01*
X238620Y552678D02*
X238685Y552743D01*
Y555478D02*
X241305Y558098D01*
X238685Y552743D02*
Y555478D01*
X241305Y558098D02*
Y558413D01*
X250100Y515962D02*
X250600D01*
X251710Y517072D02*
Y517572D01*
X253763Y519624D02*
X265624D01*
X251710Y517572D02*
X253763Y519624D01*
X265949Y519299D02*
X266134D01*
X250600Y515962D02*
X251710Y517072D01*
X265624Y519624D02*
X265949Y519299D01*
D82*
X806245Y351373D02*
Y375892D01*
X827819Y397465D01*
X679670Y397931D02*
Y398431D01*
Y397931D02*
X686029Y391572D01*
Y383044D02*
Y391572D01*
Y383044D02*
X687560Y381514D01*
X663172Y414929D02*
X679670Y398431D01*
X784975Y534865D02*
X801848D01*
X784206Y535634D02*
X784975Y534865D01*
X790831Y668338D02*
X807592Y651578D01*
X777019Y537165D02*
X778549Y535634D01*
X669567Y694010D02*
X686689D01*
X712361Y668338D01*
X790831D01*
X807592Y540608D02*
Y651578D01*
X778549Y535634D02*
X784206D01*
X801848Y534865D02*
X807592Y540608D01*
X655407Y708170D02*
X669567Y694010D01*
X699582Y486365D02*
X777019D01*
X654648Y441431D02*
X699582Y486365D01*
X654648Y386298D02*
Y441431D01*
Y386298D02*
X745708Y295239D01*
X767570D01*
X781360Y309029D01*
X777019Y511765D02*
X790558Y498225D01*
Y379156D02*
Y498225D01*
X755960Y344558D02*
X790558Y379156D01*
X755960Y309029D02*
Y344558D01*
X533222Y437719D02*
X549915D01*
X554016Y433619D01*
Y388493D02*
Y433619D01*
Y388493D02*
X613909Y328599D01*
X762035Y445981D02*
X777019Y460965D01*
X675764Y445981D02*
X762035D01*
X663172Y433388D02*
X675764Y445981D01*
X663172Y414929D02*
Y433388D01*
D83*
X827819Y549865D02*
Y563489D01*
X867360Y603031D01*
Y635406D01*
X827819Y549865D02*
X867992D01*
X873850Y245162D02*
Y544007D01*
X867992Y549865D02*
X873850Y544007D01*
X794949Y166261D02*
X873850Y245162D01*
X765191Y678362D02*
X824404D01*
X649074Y723460D02*
X720094D01*
X612617Y701649D02*
X627263D01*
X604607Y708170D02*
X606096D01*
X739492Y166261D02*
X794949D01*
X606096Y708170D02*
X612617Y701649D01*
X627263D02*
X649074Y723460D01*
X720094D02*
X765191Y678362D01*
X824404D02*
X867360Y635406D01*
X827819Y448265D02*
X859309Y416774D01*
X838493Y293739D02*
X859309Y314555D01*
Y416774D01*
X846072Y365119D02*
Y404611D01*
X827819Y422865D02*
X846072Y404611D01*
X832160Y351207D02*
X846072Y365119D01*
X832160Y309029D02*
Y351207D01*
X823538Y293739D02*
X838493D01*
X808248Y309029D02*
X823538Y293739D01*
X806760Y309029D02*
X808248D01*
D84*
X568648Y424660D02*
X613909Y379399D01*
X568648Y424660D02*
Y436253D01*
X574506Y442111D01*
X583171D01*
X539732Y488932D02*
X585321D01*
X533400Y482600D02*
X539732Y488932D01*
X533400Y437898D02*
Y482600D01*
X533222Y437719D02*
X533400Y437898D01*
D85*
X291781Y536549D02*
D03*
Y531549D02*
D03*
D86*
X260781D02*
D03*
Y536549D02*
D03*
D87*
X188376Y152070D02*
D03*
Y287070D02*
D03*
D88*
X248376Y255570D02*
D03*
Y183570D02*
D03*
D89*
X185726Y703479D02*
D03*
X853248Y60918D02*
D03*
X854638Y701218D02*
D03*
X185291Y57860D02*
D03*
D90*
X302639Y84335D02*
D03*
X277236Y682964D02*
D03*
D91*
X251839Y84335D02*
D03*
X328036Y682964D02*
D03*
D92*
X421411Y84834D02*
D03*
X471411D02*
D03*
D93*
X371411D02*
D03*
D94*
X613909Y379399D02*
D03*
D95*
X777019Y562565D02*
D03*
D96*
X755960Y309029D02*
D03*
M02*
