G04*
G04 #@! TF.GenerationSoftware,Altium Limited,Altium Designer,25.1.2 (22)*
G04*
G04 Layer_Color=32896*
%FSLAX44Y44*%
%MOMM*%
G71*
G04*
G04 #@! TF.SameCoordinates,94B53329-3CDA-4FED-B36A-321C29857B18*
G04*
G04*
G04 #@! TF.FilePolarity,Positive*
G04*
G01*
G75*
%ADD15C,0.3000*%
%ADD83C,1.0000*%
D15*
X759000Y570255D02*
Y580251D01*
X754002D01*
X752336Y578585D01*
Y575253D01*
X754002Y573587D01*
X759000D01*
X755668D02*
X752336Y570255D01*
X747337D02*
X744005D01*
X742339Y571921D01*
Y575253D01*
X744005Y576919D01*
X747337D01*
X749003Y575253D01*
Y571921D01*
X747337Y570255D01*
X739006Y580251D02*
Y570255D01*
X734008D01*
X732342Y571921D01*
Y573587D01*
Y575253D01*
X734008Y576919D01*
X739006D01*
X727344Y570255D02*
X724011D01*
X722345Y571921D01*
Y575253D01*
X724011Y576919D01*
X727344D01*
X729010Y575253D01*
Y571921D01*
X727344Y570255D01*
X719013D02*
Y580251D01*
X714015D01*
X712348Y578585D01*
Y575253D01*
X714015Y573587D01*
X719013D01*
X715681D02*
X712348Y570255D01*
X704018D02*
X707350D01*
X709016Y571921D01*
Y575253D01*
X707350Y576919D01*
X704018D01*
X702352Y575253D01*
Y573587D01*
X709016D01*
X699019Y580251D02*
Y570255D01*
X694021D01*
X692355Y571921D01*
Y573587D01*
Y575253D01*
X694021Y576919D01*
X699019D01*
X687356Y570255D02*
X684024D01*
X682358Y571921D01*
Y575253D01*
X684024Y576919D01*
X687356D01*
X689023Y575253D01*
Y571921D01*
X687356Y570255D01*
X679026Y576919D02*
Y571921D01*
X677360Y570255D01*
X672361D01*
Y576919D01*
X669029Y570255D02*
Y576919D01*
X664031D01*
X662365Y575253D01*
Y570255D01*
X652368Y580251D02*
Y570255D01*
X657366D01*
X659032Y571921D01*
Y575253D01*
X657366Y576919D01*
X652368D01*
X639039Y570255D02*
Y580251D01*
X634040D01*
X632374Y578585D01*
Y575253D01*
X634040Y573587D01*
X639039D01*
X635706D02*
X632374Y570255D01*
X622377Y580251D02*
X629042D01*
Y570255D01*
X622377D01*
X629042Y575253D02*
X625710D01*
X619045Y580251D02*
Y573587D01*
X615713Y570255D01*
X612381Y573587D01*
Y580251D01*
X609048Y570255D02*
X605716D01*
X607382D01*
Y580251D01*
X609048Y578585D01*
X759000Y549392D02*
Y559389D01*
X755668Y556057D01*
X752336Y559389D01*
Y549392D01*
X747337Y556057D02*
X744005D01*
X742339Y554391D01*
Y549392D01*
X747337D01*
X749003Y551058D01*
X747337Y552724D01*
X742339D01*
X739006Y549392D02*
X734008D01*
X732342Y551058D01*
X734008Y552724D01*
X737340D01*
X739006Y554391D01*
X737340Y556057D01*
X732342D01*
X727344Y557723D02*
Y556057D01*
X729010D01*
X725677D01*
X727344D01*
Y551058D01*
X725677Y549392D01*
X715681D02*
X719013D01*
X720679Y551058D01*
Y554391D01*
X719013Y556057D01*
X715681D01*
X714015Y554391D01*
Y552724D01*
X720679D01*
X710682Y556057D02*
Y549392D01*
Y552724D01*
X709016Y554391D01*
X707350Y556057D01*
X705684D01*
X699019Y561055D02*
Y557723D01*
X700686Y556057D01*
X694021Y549392D02*
X689023D01*
X687356Y551058D01*
X689023Y552724D01*
X692355D01*
X694021Y554391D01*
X692355Y556057D01*
X687356D01*
X674027Y559389D02*
X667363D01*
X670695D01*
Y549392D01*
X664031Y559389D02*
Y549392D01*
Y554391D01*
X662365Y556057D01*
X659032D01*
X657366Y554391D01*
Y549392D01*
X649035D02*
X652368D01*
X654034Y551058D01*
Y554391D01*
X652368Y556057D01*
X649035D01*
X647369Y554391D01*
Y552724D01*
X654034D01*
X644037Y549392D02*
X639039D01*
X637373Y551058D01*
X639039Y552724D01*
X642371D01*
X644037Y554391D01*
X642371Y556057D01*
X637373D01*
X634040Y549392D02*
X630708D01*
X632374D01*
Y556057D01*
X634040D01*
X625710Y549392D02*
X620711D01*
X619045Y551058D01*
X620711Y552724D01*
X624044D01*
X625710Y554391D01*
X624044Y556057D01*
X619045D01*
X605716Y554391D02*
X599052D01*
X752336Y536861D02*
X757334D01*
X759000Y535195D01*
Y531862D01*
X757334Y530196D01*
X752336D01*
X749003D02*
X744005D01*
X742339Y531862D01*
X744005Y533528D01*
X747337D01*
X749003Y535195D01*
X747337Y536861D01*
X742339D01*
X737340D02*
X734008D01*
X732342Y535195D01*
Y530196D01*
X737340D01*
X739006Y531862D01*
X737340Y533528D01*
X732342D01*
X727344Y538527D02*
Y536861D01*
X729010D01*
X725677D01*
X727344D01*
Y531862D01*
X725677Y530196D01*
X714015D02*
X720679D01*
X714015Y536861D01*
Y538527D01*
X715681Y540193D01*
X719013D01*
X720679Y538527D01*
X710682D02*
X709016Y540193D01*
X705684D01*
X704018Y538527D01*
Y536861D01*
X705684Y535195D01*
X704018Y533528D01*
Y531862D01*
X705684Y530196D01*
X709016D01*
X710682Y531862D01*
Y533528D01*
X709016Y535195D01*
X710682Y536861D01*
Y538527D01*
X709016Y535195D02*
X705684D01*
X752336Y511000D02*
X759000D01*
X752336Y517664D01*
Y519331D01*
X754002Y520997D01*
X757334D01*
X759000Y519331D01*
X749003D02*
X747337Y520997D01*
X744005D01*
X742339Y519331D01*
Y512666D01*
X744005Y511000D01*
X747337D01*
X749003Y512666D01*
Y519331D01*
X732342Y511000D02*
X739006D01*
X732342Y517664D01*
Y519331D01*
X734008Y520997D01*
X737340D01*
X739006Y519331D01*
X722345Y520997D02*
X725677Y519331D01*
X729010Y515998D01*
Y512666D01*
X727344Y511000D01*
X724011D01*
X722345Y512666D01*
Y514332D01*
X724011Y515998D01*
X729010D01*
D83*
X777400Y383969D02*
Y463943D01*
X737413D01*
X724084Y450614D01*
Y423956D01*
X737413Y410627D01*
X777400D01*
X750742D02*
X724084Y383969D01*
X657439Y463943D02*
X684097D01*
X697426Y450614D01*
Y397298D01*
X684097Y383969D01*
X657439D01*
X644110Y397298D01*
Y450614D01*
X657439Y463943D01*
X617452D02*
Y383969D01*
X577465D01*
X564136Y397298D01*
Y410627D01*
X577465Y423956D01*
X617452D01*
X577465D01*
X564136Y437285D01*
Y450614D01*
X577465Y463943D01*
X617452D01*
X497491D02*
X524149D01*
X537478Y450614D01*
Y397298D01*
X524149Y383969D01*
X497491D01*
X484161Y397298D01*
Y450614D01*
X497491Y463943D01*
X777400Y264000D02*
Y343974D01*
X737413D01*
X724084Y330645D01*
Y303987D01*
X737413Y290658D01*
X777400D01*
X750742D02*
X724084Y264000D01*
X644110Y343974D02*
X697426D01*
Y264000D01*
X644110D01*
X697426Y303987D02*
X670768D01*
X617452Y343974D02*
Y264000D01*
X577465D01*
X564136Y277329D01*
Y290658D01*
X577465Y303987D01*
X617452D01*
X577465D01*
X564136Y317316D01*
Y330645D01*
X577465Y343974D01*
X617452D01*
X497491D02*
X524149D01*
X537478Y330645D01*
Y277329D01*
X524149Y264000D01*
X497491D01*
X484161Y277329D01*
Y330645D01*
X497491Y343974D01*
X457504D02*
Y277329D01*
X444174Y264000D01*
X417516D01*
X404187Y277329D01*
Y343974D01*
X377529Y264000D02*
Y343974D01*
X324213Y264000D01*
Y343974D01*
X297555D02*
Y264000D01*
X257568D01*
X244239Y277329D01*
Y330645D01*
X257568Y343974D01*
X297555D01*
M02*
