G04*
G04 #@! TF.GenerationSoftware,Altium Limited,Altium Designer,25.1.2 (22)*
G04*
G04 Layer_Physical_Order=2*
G04 Layer_Color=36540*
%FSLAX44Y44*%
%MOMM*%
G71*
G04*
G04 #@! TF.SameCoordinates,94B53329-3CDA-4FED-B36A-321C29857B18*
G04*
G04*
G04 #@! TF.FilePolarity,Positive*
G04*
G01*
G75*
%ADD52R,1.7000X1.7000*%
%ADD53C,1.7000*%
%ADD57C,1.1000*%
%ADD58R,1.1000X1.1000*%
%ADD59C,1.5500*%
%ADD60R,1.5500X1.5500*%
%ADD61C,1.3000*%
%ADD62R,1.3000X1.3000*%
%ADD65R,1.3000X1.3000*%
%ADD72R,1.1000X1.1000*%
%ADD73C,0.5080*%
%ADD74C,1.5000*%
%ADD75C,0.6000*%
%ADD76C,0.5000*%
%ADD87C,2.7000*%
%ADD88C,4.0500*%
%ADD89C,6.0000*%
%ADD90C,1.8000*%
%ADD91R,1.8000X1.8000*%
%ADD92C,1.9500*%
G04:AMPARAMS|DCode=93|XSize=1.95mm|YSize=1.95mm|CornerRadius=0.4875mm|HoleSize=0mm|Usage=FLASHONLY|Rotation=0.000|XOffset=0mm|YOffset=0mm|HoleType=Round|Shape=RoundedRectangle|*
%AMROUNDEDRECTD93*
21,1,1.9500,0.9750,0,0,0.0*
21,1,0.9750,1.9500,0,0,0.0*
1,1,0.9750,0.4875,-0.4875*
1,1,0.9750,-0.4875,-0.4875*
1,1,0.9750,-0.4875,0.4875*
1,1,0.9750,0.4875,0.4875*
%
%ADD93ROUNDEDRECTD93*%
%ADD94R,1.7000X1.7000*%
%ADD95R,1.5000X1.5000*%
%ADD96R,1.5500X1.5500*%
G36*
X173280Y732232D02*
X169337Y730223D01*
X165355Y727330D01*
X161874Y723850D01*
X158981Y719868D01*
X156747Y715482D01*
X154990Y715828D01*
Y734010D01*
X172853D01*
X173280Y732232D01*
D02*
G37*
G36*
X886410Y710379D02*
X884632Y710098D01*
X883617Y713221D01*
X881383Y717607D01*
X878490Y721589D01*
X875009Y725069D01*
X871027Y727962D01*
X866642Y730197D01*
X861961Y731718D01*
X858712Y732232D01*
X858852Y734010D01*
X886410D01*
Y710379D01*
D02*
G37*
G36*
X850565Y732232D02*
X847316Y731718D01*
X842635Y730197D01*
X838249Y727962D01*
X834267Y725069D01*
X830787Y721589D01*
X827894Y717607D01*
X825659Y713221D01*
X824138Y708540D01*
X823368Y703679D01*
Y698757D01*
X824138Y693895D01*
X825659Y689214D01*
X827894Y684829D01*
X830787Y680847D01*
X834267Y677366D01*
X838249Y674473D01*
X842635Y672239D01*
X847316Y670718D01*
X852177Y669948D01*
X857099D01*
X861961Y670718D01*
X866642Y672239D01*
X871027Y674473D01*
X875009Y677366D01*
X878490Y680847D01*
X881383Y684829D01*
X883617Y689214D01*
X884632Y692338D01*
X886410Y692056D01*
Y27990D01*
X856602D01*
X856462Y29768D01*
X860570Y30418D01*
X865251Y31939D01*
X869637Y34174D01*
X873619Y37067D01*
X877099Y40547D01*
X879993Y44529D01*
X882227Y48915D01*
X883748Y53596D01*
X884518Y58457D01*
Y63379D01*
X883748Y68241D01*
X882227Y72922D01*
X879993Y77307D01*
X877099Y81289D01*
X873619Y84770D01*
X869637Y87663D01*
X865251Y89897D01*
X860570Y91418D01*
X855709Y92188D01*
X850787D01*
X845926Y91418D01*
X841245Y89897D01*
X836859Y87663D01*
X832877Y84770D01*
X829397Y81289D01*
X826504Y77307D01*
X824269Y72922D01*
X822748Y68241D01*
X821978Y63379D01*
Y58457D01*
X822748Y53596D01*
X824269Y48915D01*
X826504Y44529D01*
X829397Y40547D01*
X832877Y37067D01*
X836859Y34174D01*
X841245Y31939D01*
X845926Y30418D01*
X850034Y29768D01*
X849894Y27990D01*
X199461D01*
X199034Y29768D01*
X201679Y31116D01*
X205662Y34009D01*
X209142Y37489D01*
X212035Y41471D01*
X214270Y45857D01*
X215791Y50538D01*
X216560Y55399D01*
Y60321D01*
X215791Y65183D01*
X214270Y69864D01*
X212035Y74249D01*
X209142Y78231D01*
X205662Y81712D01*
X201679Y84605D01*
X197294Y86839D01*
X192613Y88360D01*
X187752Y89130D01*
X182829D01*
X177968Y88360D01*
X173287Y86839D01*
X168901Y84605D01*
X164919Y81712D01*
X161439Y78231D01*
X158546Y74249D01*
X156768Y70759D01*
X154990Y71186D01*
Y691130D01*
X156747Y691475D01*
X158981Y687090D01*
X161874Y683108D01*
X165355Y679628D01*
X169337Y676734D01*
X173722Y674500D01*
X178403Y672979D01*
X183265Y672209D01*
X188187D01*
X193048Y672979D01*
X197729Y674500D01*
X202115Y676734D01*
X206097Y679628D01*
X209577Y683108D01*
X212470Y687090D01*
X214705Y691475D01*
X216226Y696156D01*
X216996Y701018D01*
Y705940D01*
X216226Y710801D01*
X214705Y715482D01*
X212470Y719868D01*
X209577Y723850D01*
X206097Y727330D01*
X202115Y730223D01*
X198172Y732232D01*
X198599Y734010D01*
X850425D01*
X850565Y732232D01*
D02*
G37*
%LPC*%
G36*
X758195Y717190D02*
X755820D01*
X753526Y716575D01*
X751469Y715388D01*
X749790Y713708D01*
X748602Y711651D01*
X747987Y709357D01*
Y706982D01*
X748602Y704688D01*
X749790Y702631D01*
X751469Y700952D01*
X753526Y699764D01*
X755820Y699150D01*
X758195D01*
X760489Y699764D01*
X762546Y700952D01*
X764225Y702631D01*
X765413Y704688D01*
X766027Y706982D01*
Y709357D01*
X765413Y711651D01*
X764225Y713708D01*
X762546Y715388D01*
X760489Y716575D01*
X758195Y717190D01*
D02*
G37*
G36*
X707395D02*
X705020D01*
X702726Y716575D01*
X700669Y715388D01*
X698990Y713708D01*
X697802Y711651D01*
X697187Y709357D01*
Y706982D01*
X697802Y704688D01*
X698990Y702631D01*
X700669Y700952D01*
X702726Y699764D01*
X705020Y699150D01*
X707395D01*
X709689Y699764D01*
X711746Y700952D01*
X713425Y702631D01*
X714613Y704688D01*
X715227Y706982D01*
Y709357D01*
X714613Y711651D01*
X713425Y713708D01*
X711746Y715388D01*
X709689Y716575D01*
X707395Y717190D01*
D02*
G37*
G36*
X656595D02*
X654220D01*
X651926Y716575D01*
X649869Y715388D01*
X648190Y713708D01*
X647002Y711651D01*
X646387Y709357D01*
Y706982D01*
X647002Y704688D01*
X648190Y702631D01*
X649869Y700952D01*
X651926Y699764D01*
X654220Y699150D01*
X656595D01*
X658889Y699764D01*
X660946Y700952D01*
X662625Y702631D01*
X663813Y704688D01*
X664427Y706982D01*
Y709357D01*
X663813Y711651D01*
X662625Y713708D01*
X660946Y715388D01*
X658889Y716575D01*
X656595Y717190D01*
D02*
G37*
G36*
X605795D02*
X603420D01*
X601126Y716575D01*
X599069Y715388D01*
X597390Y713708D01*
X596202Y711651D01*
X595587Y709357D01*
Y706982D01*
X596202Y704688D01*
X597390Y702631D01*
X599069Y700952D01*
X601126Y699764D01*
X603420Y699150D01*
X605795D01*
X608089Y699764D01*
X610146Y700952D01*
X611825Y702631D01*
X613013Y704688D01*
X613627Y706982D01*
Y709357D01*
X613013Y711651D01*
X611825Y713708D01*
X610146Y715388D01*
X608089Y716575D01*
X605795Y717190D01*
D02*
G37*
G36*
X406319Y692238D02*
Y687964D01*
X410593D01*
X409746Y689431D01*
X407785Y691392D01*
X406319Y692238D01*
D02*
G37*
G36*
X456318D02*
Y687964D01*
X460593D01*
X459746Y689431D01*
X457785Y691392D01*
X456318Y692238D01*
D02*
G37*
G36*
X339068Y693996D02*
X333036D01*
Y687964D01*
X339068D01*
Y693996D01*
D02*
G37*
G36*
X323036D02*
X317004D01*
Y687964D01*
X323036D01*
Y693996D01*
D02*
G37*
G36*
X396319Y692238D02*
X394852Y691392D01*
X392891Y689431D01*
X392044Y687964D01*
X396319D01*
Y692238D01*
D02*
G37*
G36*
X446318D02*
X444852Y691392D01*
X442891Y689431D01*
X442044Y687964D01*
X446318D01*
Y692238D01*
D02*
G37*
G36*
X460593Y677964D02*
X456318D01*
Y673689D01*
X457785Y674536D01*
X459746Y676497D01*
X460593Y677964D01*
D02*
G37*
G36*
X410593D02*
X406319D01*
Y673689D01*
X407785Y674536D01*
X409746Y676497D01*
X410593Y677964D01*
D02*
G37*
G36*
X446318D02*
X442044D01*
X442891Y676497D01*
X444852Y674536D01*
X446318Y673689D01*
Y677964D01*
D02*
G37*
G36*
X396319D02*
X392044D01*
X392891Y676497D01*
X394852Y674536D01*
X396319Y673689D01*
Y677964D01*
D02*
G37*
G36*
X561089Y692734D02*
X541549D01*
Y673194D01*
X561089D01*
Y692734D01*
D02*
G37*
G36*
X502604D02*
X500032D01*
X497547Y692068D01*
X495319Y690782D01*
X493500Y688963D01*
X492214Y686735D01*
X491548Y684250D01*
Y681678D01*
X492214Y679193D01*
X493500Y676965D01*
X495319Y675146D01*
X497547Y673860D01*
X500032Y673194D01*
X502604D01*
X505089Y673860D01*
X507317Y675146D01*
X509136Y676965D01*
X510422Y679193D01*
X511088Y681678D01*
Y684250D01*
X510422Y686735D01*
X509136Y688963D01*
X507317Y690782D01*
X505089Y692068D01*
X502604Y692734D01*
D02*
G37*
G36*
X278588Y693234D02*
X275884D01*
X273272Y692534D01*
X270930Y691182D01*
X269018Y689270D01*
X267666Y686928D01*
X266966Y684316D01*
Y681612D01*
X267666Y679000D01*
X269018Y676658D01*
X270930Y674746D01*
X273272Y673394D01*
X275884Y672694D01*
X278588D01*
X281200Y673394D01*
X283542Y674746D01*
X285454Y676658D01*
X286806Y679000D01*
X287506Y681612D01*
Y684316D01*
X286806Y686928D01*
X285454Y689270D01*
X283542Y691182D01*
X281200Y692534D01*
X278588Y693234D01*
D02*
G37*
G36*
X339068Y677964D02*
X333036D01*
Y671932D01*
X339068D01*
Y677964D01*
D02*
G37*
G36*
X323036D02*
X317004D01*
Y671932D01*
X323036D01*
Y677964D01*
D02*
G37*
G36*
X342644Y620304D02*
X340945D01*
X339376Y619654D01*
X338175Y618453D01*
X337525Y616883D01*
Y615185D01*
X338175Y613615D01*
X339376Y612414D01*
X340945Y611764D01*
X342644D01*
X344213Y612414D01*
X345415Y613615D01*
X346065Y615185D01*
Y616883D01*
X345415Y618453D01*
X344213Y619654D01*
X342644Y620304D01*
D02*
G37*
G36*
X766027Y628390D02*
X747987D01*
Y610350D01*
X766027D01*
Y628390D01*
D02*
G37*
G36*
X715227D02*
X697187D01*
Y610350D01*
X715227D01*
Y628390D01*
D02*
G37*
G36*
X664427D02*
X646387D01*
Y610350D01*
X664427D01*
Y628390D01*
D02*
G37*
G36*
X613627D02*
X595587D01*
Y610350D01*
X613627D01*
Y628390D01*
D02*
G37*
G36*
X320280Y618793D02*
X318581D01*
X317012Y618143D01*
X315811Y616942D01*
X315161Y615372D01*
Y613674D01*
X315811Y612104D01*
X317012Y610903D01*
X318581Y610253D01*
X320280D01*
X321849Y610903D01*
X323051Y612104D01*
X323701Y613674D01*
Y615372D01*
X323051Y616942D01*
X321849Y618143D01*
X320280Y618793D01*
D02*
G37*
G36*
X342946Y602624D02*
X341248D01*
X339678Y601974D01*
X338477Y600773D01*
X337827Y599204D01*
Y597505D01*
X338477Y595936D01*
X339678Y594734D01*
X341248Y594084D01*
X342946D01*
X344516Y594734D01*
X345717Y595936D01*
X346367Y597505D01*
Y599204D01*
X345717Y600773D01*
X344516Y601974D01*
X342946Y602624D01*
D02*
G37*
G36*
X502200Y575738D02*
X498668D01*
Y572206D01*
X502200D01*
Y575738D01*
D02*
G37*
G36*
X488668D02*
X485136D01*
Y572206D01*
X488668D01*
Y575738D01*
D02*
G37*
G36*
X786551Y572097D02*
X782019D01*
Y567565D01*
X786551D01*
Y572097D01*
D02*
G37*
G36*
X772019D02*
X767486D01*
Y567565D01*
X772019D01*
Y572097D01*
D02*
G37*
G36*
X300126Y573501D02*
X298610D01*
X297210Y572921D01*
X296138Y571849D01*
X295558Y570449D01*
Y568933D01*
X296138Y567533D01*
X297210Y566461D01*
X298610Y565881D01*
X300126D01*
X301526Y566461D01*
X302598Y567533D01*
X303178Y568933D01*
Y570449D01*
X302598Y571849D01*
X301526Y572921D01*
X300126Y573501D01*
D02*
G37*
G36*
X544692Y574976D02*
X542646D01*
X540670Y574447D01*
X538898Y573424D01*
X537451Y571977D01*
X536428Y570205D01*
X535899Y568229D01*
Y566183D01*
X536428Y564207D01*
X537451Y562435D01*
X538898Y560989D01*
X540670Y559966D01*
X542646Y559436D01*
X544692D01*
X546668Y559966D01*
X548440Y560989D01*
X549886Y562435D01*
X550909Y564207D01*
X551439Y566183D01*
Y568229D01*
X550909Y570205D01*
X549886Y571977D01*
X548440Y573424D01*
X546668Y574447D01*
X544692Y574976D01*
D02*
G37*
G36*
X502200Y562206D02*
X498668D01*
Y558674D01*
X502200D01*
Y562206D01*
D02*
G37*
G36*
X488668D02*
X485136D01*
Y558674D01*
X488668D01*
Y562206D01*
D02*
G37*
G36*
X285885Y562447D02*
X284369D01*
X282969Y561866D01*
X281897Y560795D01*
X281317Y559394D01*
Y557879D01*
X281897Y556478D01*
X282969Y555407D01*
X284369Y554827D01*
X285885D01*
X287285Y555407D01*
X288357Y556478D01*
X288937Y557879D01*
Y559394D01*
X288357Y560795D01*
X287285Y561866D01*
X285885Y562447D01*
D02*
G37*
G36*
X242063Y562223D02*
X240547D01*
X239147Y561643D01*
X238075Y560571D01*
X237495Y559171D01*
Y557655D01*
X238075Y556255D01*
X239147Y555183D01*
X240547Y554603D01*
X242063D01*
X243463Y555183D01*
X244535Y556255D01*
X245115Y557655D01*
Y559171D01*
X244535Y560571D01*
X243463Y561643D01*
X242063Y562223D01*
D02*
G37*
G36*
X786551Y557565D02*
X782019D01*
Y553033D01*
X786551D01*
Y557565D01*
D02*
G37*
G36*
X772019D02*
X767486D01*
Y553033D01*
X772019D01*
Y557565D01*
D02*
G37*
G36*
X324994Y558574D02*
X323296D01*
X321726Y557924D01*
X320525Y556723D01*
X319875Y555154D01*
Y553455D01*
X319725Y551818D01*
X318156Y551168D01*
X316955Y549967D01*
X316305Y548398D01*
Y546699D01*
X316955Y545130D01*
X318156Y543928D01*
X319725Y543278D01*
X321424D01*
X322993Y543928D01*
X324194Y545130D01*
X324845Y546699D01*
Y548398D01*
X324994Y550034D01*
X326564Y550685D01*
X327765Y551886D01*
X328415Y553455D01*
Y555154D01*
X327765Y556723D01*
X326564Y557924D01*
X324994Y558574D01*
D02*
G37*
G36*
X828973Y558635D02*
X826664D01*
X824433Y558037D01*
X822434Y556883D01*
X820801Y555250D01*
X819646Y553250D01*
X819048Y551019D01*
Y548710D01*
X819646Y546480D01*
X820801Y544480D01*
X822434Y542847D01*
X824433Y541693D01*
X826664Y541095D01*
X828973D01*
X831204Y541693D01*
X833203Y542847D01*
X834836Y544480D01*
X835991Y546480D01*
X836589Y548710D01*
Y551019D01*
X835991Y553250D01*
X834836Y555250D01*
X833203Y556883D01*
X831204Y558037D01*
X828973Y558635D01*
D02*
G37*
G36*
X778173Y545935D02*
X775864D01*
X773633Y545337D01*
X771634Y544183D01*
X770001Y542550D01*
X768846Y540550D01*
X768249Y538319D01*
Y536010D01*
X768846Y533780D01*
X770001Y531780D01*
X771634Y530147D01*
X773633Y528993D01*
X775864Y528395D01*
X778173D01*
X780404Y528993D01*
X782403Y530147D01*
X784036Y531780D01*
X785191Y533780D01*
X785788Y536010D01*
Y538319D01*
X785191Y540550D01*
X784036Y542550D01*
X782403Y544183D01*
X780404Y545337D01*
X778173Y545935D01*
D02*
G37*
G36*
X828973Y533235D02*
X826664D01*
X824433Y532637D01*
X822434Y531483D01*
X820801Y529850D01*
X819646Y527850D01*
X819048Y525619D01*
Y523310D01*
X819646Y521080D01*
X820801Y519080D01*
X822434Y517447D01*
X824433Y516292D01*
X826664Y515695D01*
X828973D01*
X831204Y516292D01*
X833203Y517447D01*
X834836Y519080D01*
X835991Y521080D01*
X836589Y523310D01*
Y525619D01*
X835991Y527850D01*
X834836Y529850D01*
X833203Y531483D01*
X831204Y532637D01*
X828973Y533235D01*
D02*
G37*
G36*
X298397Y525907D02*
X296881D01*
X295481Y525327D01*
X294409Y524255D01*
X293829Y522854D01*
Y521339D01*
X294363Y520049D01*
X294447Y519694D01*
X294670Y518252D01*
X293598Y517180D01*
X293018Y515780D01*
Y514264D01*
X293598Y512864D01*
X294670Y511792D01*
X296070Y511212D01*
X297586D01*
X298986Y511792D01*
X300058Y512864D01*
X300638Y514264D01*
Y515780D01*
X300104Y517069D01*
X300021Y517424D01*
X299797Y518867D01*
X300869Y519938D01*
X301449Y521339D01*
Y522854D01*
X300869Y524255D01*
X299797Y525327D01*
X298397Y525907D01*
D02*
G37*
G36*
X702564Y524552D02*
X700518D01*
X698542Y524023D01*
X696770Y523000D01*
X695324Y521553D01*
X694301Y519781D01*
X693771Y517805D01*
Y515759D01*
X694301Y513783D01*
X695324Y512011D01*
X696770Y510565D01*
X698542Y509542D01*
X700518Y509012D01*
X702564D01*
X704540Y509542D01*
X706312Y510565D01*
X707759Y512011D01*
X708782Y513783D01*
X709311Y515759D01*
Y517805D01*
X708782Y519781D01*
X707759Y521553D01*
X706312Y523000D01*
X704540Y524023D01*
X702564Y524552D01*
D02*
G37*
G36*
X229358Y511810D02*
X227842D01*
X226442Y511230D01*
X225370Y510158D01*
X224790Y508758D01*
Y507242D01*
X225370Y505842D01*
X226442Y504770D01*
X227842Y504190D01*
X229358D01*
X230758Y504770D01*
X231830Y505842D01*
X232410Y507242D01*
Y508758D01*
X231830Y510158D01*
X230758Y511230D01*
X229358Y511810D01*
D02*
G37*
G36*
X778173Y520535D02*
X775864D01*
X773633Y519937D01*
X771634Y518783D01*
X770001Y517150D01*
X768846Y515150D01*
X768249Y512919D01*
Y510610D01*
X768846Y508380D01*
X770001Y506380D01*
X771634Y504747D01*
X773633Y503592D01*
X775864Y502995D01*
X778173D01*
X780404Y503592D01*
X782403Y504747D01*
X784036Y506380D01*
X785191Y508380D01*
X785788Y510610D01*
Y512919D01*
X785191Y515150D01*
X784036Y517150D01*
X782403Y518783D01*
X780404Y519937D01*
X778173Y520535D01*
D02*
G37*
G36*
X269916Y507265D02*
X268401D01*
X267001Y506685D01*
X265929Y505613D01*
X265349Y504213D01*
Y502697D01*
X265929Y501297D01*
X267001Y500225D01*
X268401Y499645D01*
X269916D01*
X271317Y500225D01*
X272389Y501297D01*
X272969Y502697D01*
Y504213D01*
X272389Y505613D01*
X271317Y506685D01*
X269916Y507265D01*
D02*
G37*
G36*
X282463Y500483D02*
X280947D01*
X279547Y499903D01*
X278475Y498831D01*
X277895Y497431D01*
Y495915D01*
X278475Y494515D01*
X279547Y493443D01*
X280947Y492863D01*
X282463D01*
X283863Y493443D01*
X284935Y494515D01*
X285515Y495915D01*
Y497431D01*
X284935Y498831D01*
X283863Y499903D01*
X282463Y500483D01*
D02*
G37*
G36*
X828973Y507835D02*
X826664D01*
X824433Y507237D01*
X822434Y506082D01*
X820801Y504450D01*
X819646Y502450D01*
X819048Y500219D01*
Y497910D01*
X819646Y495680D01*
X820801Y493680D01*
X822434Y492047D01*
X824433Y490892D01*
X826664Y490295D01*
X828973D01*
X831204Y490892D01*
X833203Y492047D01*
X834836Y493680D01*
X835991Y495680D01*
X836589Y497910D01*
Y500219D01*
X835991Y502450D01*
X834836Y504450D01*
X833203Y506082D01*
X831204Y507237D01*
X828973Y507835D01*
D02*
G37*
G36*
X832819Y481785D02*
Y478665D01*
X835938D01*
X835446Y479518D01*
X833671Y481292D01*
X832819Y481785D01*
D02*
G37*
G36*
X822819D02*
X821966Y481292D01*
X820191Y479518D01*
X819699Y478665D01*
X822819D01*
Y481785D01*
D02*
G37*
G36*
X778173Y495135D02*
X775864D01*
X773633Y494537D01*
X771634Y493382D01*
X770001Y491750D01*
X768846Y489750D01*
X768249Y487519D01*
Y485210D01*
X768846Y482980D01*
X770001Y480980D01*
X771634Y479347D01*
X773633Y478192D01*
X775864Y477595D01*
X778173D01*
X780404Y478192D01*
X782403Y479347D01*
X784036Y480980D01*
X785191Y482980D01*
X785788Y485210D01*
Y487519D01*
X785191Y489750D01*
X784036Y491750D01*
X782403Y493382D01*
X780404Y494537D01*
X778173Y495135D01*
D02*
G37*
G36*
X710073Y475314D02*
X706541D01*
Y471782D01*
X710073D01*
Y475314D01*
D02*
G37*
G36*
X696541D02*
X693009D01*
Y471782D01*
X696541D01*
Y475314D01*
D02*
G37*
G36*
X586212Y495702D02*
X584429D01*
X582707Y495241D01*
X581164Y494350D01*
X579903Y493089D01*
X579012Y491545D01*
X578551Y489823D01*
Y488041D01*
X579012Y486319D01*
X579903Y484775D01*
X579162Y483002D01*
X578551D01*
Y469462D01*
X592091D01*
Y483002D01*
X591479D01*
X590738Y484775D01*
X591629Y486319D01*
X592091Y488041D01*
Y489823D01*
X591629Y491545D01*
X590738Y493089D01*
X589478Y494350D01*
X587934Y495241D01*
X586212Y495702D01*
D02*
G37*
G36*
X835938Y468665D02*
X832819D01*
Y465545D01*
X833671Y466037D01*
X835446Y467812D01*
X835938Y468665D01*
D02*
G37*
G36*
X822819D02*
X819699D01*
X820191Y467812D01*
X821966Y466037D01*
X822819Y465545D01*
Y468665D01*
D02*
G37*
G36*
X710073Y461782D02*
X706541D01*
Y458250D01*
X710073D01*
Y461782D01*
D02*
G37*
G36*
X696541D02*
X693009D01*
Y458250D01*
X696541D01*
Y461782D01*
D02*
G37*
G36*
X778173Y469735D02*
X775864D01*
X773633Y469137D01*
X771634Y467982D01*
X770001Y466350D01*
X768846Y464350D01*
X768249Y462119D01*
Y459810D01*
X768846Y457580D01*
X770001Y455580D01*
X771634Y453947D01*
X773633Y452793D01*
X775864Y452195D01*
X778173D01*
X780404Y452793D01*
X782403Y453947D01*
X784036Y455580D01*
X785191Y457580D01*
X785788Y459810D01*
Y462119D01*
X785191Y464350D01*
X784036Y466350D01*
X782403Y467982D01*
X780404Y469137D01*
X778173Y469735D01*
D02*
G37*
G36*
X596762Y448881D02*
X594980D01*
X593258Y448419D01*
X591714Y447528D01*
X589941Y448270D01*
Y448881D01*
X576401D01*
Y435341D01*
X589941D01*
Y435952D01*
X591714Y436693D01*
X593258Y435802D01*
X594980Y435341D01*
X596762D01*
X598484Y435802D01*
X600028Y436693D01*
X601288Y437954D01*
X602179Y439498D01*
X602641Y441220D01*
Y443002D01*
X602179Y444724D01*
X601288Y446268D01*
X600028Y447528D01*
X598484Y448419D01*
X596762Y448881D01*
D02*
G37*
G36*
X828973Y457035D02*
X826664D01*
X824433Y456437D01*
X822434Y455283D01*
X820801Y453650D01*
X819646Y451650D01*
X819048Y449419D01*
Y447110D01*
X819646Y444880D01*
X820801Y442880D01*
X822434Y441247D01*
X824433Y440093D01*
X826664Y439495D01*
X828973D01*
X831204Y440093D01*
X833203Y441247D01*
X834836Y442880D01*
X835991Y444880D01*
X836589Y447110D01*
Y449419D01*
X835991Y451650D01*
X834836Y453650D01*
X833203Y455283D01*
X831204Y456437D01*
X828973Y457035D01*
D02*
G37*
G36*
X293986Y447915D02*
X292486D01*
X291100Y447341D01*
X290040Y446280D01*
X289466Y444895D01*
Y443395D01*
X290040Y442009D01*
X291100Y440949D01*
X292162Y440509D01*
X292166Y440492D01*
Y438747D01*
X292162Y438731D01*
X291100Y438291D01*
X290040Y437230D01*
X289466Y435845D01*
Y434345D01*
X290040Y432959D01*
X291100Y431899D01*
X292486Y431325D01*
X293986D01*
X295371Y431899D01*
X296432Y432959D01*
X297006Y434345D01*
Y435845D01*
X296432Y437230D01*
X295371Y438291D01*
X294309Y438731D01*
X294306Y438747D01*
Y440492D01*
X294309Y440509D01*
X295371Y440949D01*
X296432Y442009D01*
X297006Y443395D01*
Y444895D01*
X296432Y446280D01*
X295371Y447341D01*
X293986Y447915D01*
D02*
G37*
G36*
X274486D02*
X272986D01*
X271600Y447341D01*
X270540Y446280D01*
X269966Y444895D01*
Y443395D01*
X270540Y442009D01*
X271600Y440949D01*
X272662Y440509D01*
X272666Y440492D01*
Y438747D01*
X272662Y438731D01*
X271600Y438291D01*
X270540Y437230D01*
X269966Y435845D01*
Y434345D01*
X270540Y432959D01*
X271600Y431899D01*
X272986Y431325D01*
X274486D01*
X275871Y431899D01*
X276932Y432959D01*
X277506Y434345D01*
Y435845D01*
X276932Y437230D01*
X275871Y438291D01*
X274809Y438731D01*
X274806Y438747D01*
Y440492D01*
X274809Y440509D01*
X275871Y440949D01*
X276932Y442009D01*
X277506Y443395D01*
Y444895D01*
X276932Y446280D01*
X275871Y447341D01*
X274486Y447915D01*
D02*
G37*
G36*
X284236Y452444D02*
X282736D01*
X281350Y451871D01*
X280290Y450810D01*
X279716Y449425D01*
Y447925D01*
X280290Y446539D01*
X281350Y445479D01*
X282412Y445038D01*
X282416Y445022D01*
Y443277D01*
X282412Y443260D01*
X281350Y442821D01*
X280290Y441760D01*
X279716Y440374D01*
Y438875D01*
X280290Y437489D01*
X281350Y436428D01*
X282412Y435989D01*
X282416Y435972D01*
Y434227D01*
X282412Y434211D01*
X281350Y433771D01*
X280290Y432710D01*
X279716Y431324D01*
Y429825D01*
X280290Y428439D01*
X281350Y427378D01*
X282736Y426805D01*
X284236D01*
X285621Y427378D01*
X286682Y428439D01*
X287256Y429825D01*
Y431324D01*
X286682Y432710D01*
X285621Y433771D01*
X284559Y434211D01*
X284556Y434227D01*
Y435972D01*
X284559Y435989D01*
X285621Y436428D01*
X286682Y437489D01*
X287256Y438875D01*
Y440374D01*
X286682Y441760D01*
X285621Y442821D01*
X284559Y443260D01*
X284556Y443277D01*
Y445022D01*
X284559Y445038D01*
X285621Y445479D01*
X286682Y446539D01*
X287256Y447925D01*
Y449425D01*
X286682Y450810D01*
X285621Y451871D01*
X284236Y452444D01*
D02*
G37*
G36*
X778173Y444335D02*
X775864D01*
X773633Y443737D01*
X771634Y442583D01*
X770001Y440950D01*
X768846Y438950D01*
X768249Y436719D01*
Y434410D01*
X768846Y432180D01*
X770001Y430180D01*
X771634Y428547D01*
X773633Y427393D01*
X775864Y426795D01*
X778173D01*
X780404Y427393D01*
X782403Y428547D01*
X784036Y430180D01*
X785191Y432180D01*
X785788Y434410D01*
Y436719D01*
X785191Y438950D01*
X784036Y440950D01*
X782403Y442583D01*
X780404Y443737D01*
X778173Y444335D01*
D02*
G37*
G36*
X539992Y444489D02*
X526452D01*
Y430949D01*
X527063D01*
X527804Y429176D01*
X526913Y427632D01*
X526452Y425911D01*
Y424128D01*
X526913Y422406D01*
X527804Y420863D01*
X529065Y419602D01*
X530608Y418711D01*
X532330Y418249D01*
X534113D01*
X535835Y418711D01*
X537379Y419602D01*
X538639Y420863D01*
X539530Y422406D01*
X539992Y424128D01*
Y425911D01*
X539530Y427632D01*
X538639Y429176D01*
X539380Y430949D01*
X539992D01*
Y444489D01*
D02*
G37*
G36*
X223285Y431827D02*
X221785D01*
X220399Y431253D01*
X219339Y430192D01*
X218765Y428807D01*
Y427307D01*
X219339Y425921D01*
X220399Y424861D01*
X221462Y424421D01*
X221465Y424404D01*
Y422659D01*
X221462Y422643D01*
X220399Y422203D01*
X219339Y421142D01*
X218765Y419757D01*
Y418257D01*
X219339Y416871D01*
X220399Y415811D01*
X221785Y415237D01*
X223285D01*
X224671Y415811D01*
X225731Y416871D01*
X226305Y418257D01*
Y419757D01*
X225731Y421142D01*
X224671Y422203D01*
X223608Y422643D01*
X223605Y422659D01*
Y424404D01*
X223608Y424421D01*
X224671Y424861D01*
X225731Y425921D01*
X226305Y427307D01*
Y428807D01*
X225731Y430192D01*
X224671Y431253D01*
X223285Y431827D01*
D02*
G37*
G36*
X203785D02*
X202285D01*
X200899Y431253D01*
X199839Y430192D01*
X199265Y428807D01*
Y427307D01*
X199839Y425921D01*
X200899Y424861D01*
X201961Y424421D01*
X201965Y424404D01*
Y422659D01*
X201961Y422643D01*
X200899Y422203D01*
X199839Y421142D01*
X199265Y419757D01*
Y418257D01*
X199839Y416871D01*
X200899Y415811D01*
X202285Y415237D01*
X203785D01*
X205170Y415811D01*
X206231Y416871D01*
X206805Y418257D01*
Y419757D01*
X206231Y421142D01*
X205170Y422203D01*
X204108Y422643D01*
X204105Y422659D01*
Y424404D01*
X204108Y424421D01*
X205170Y424861D01*
X206231Y425921D01*
X206805Y427307D01*
Y428807D01*
X206231Y430192D01*
X205170Y431253D01*
X203785Y431827D01*
D02*
G37*
G36*
X828973Y431635D02*
X826664D01*
X824433Y431037D01*
X822434Y429883D01*
X820801Y428250D01*
X819646Y426250D01*
X819048Y424019D01*
Y421710D01*
X819646Y419480D01*
X820801Y417480D01*
X822434Y415847D01*
X824433Y414692D01*
X826664Y414095D01*
X828973D01*
X831204Y414692D01*
X833203Y415847D01*
X834836Y417480D01*
X835991Y419480D01*
X836589Y421710D01*
Y424019D01*
X835991Y426250D01*
X834836Y428250D01*
X833203Y429883D01*
X831204Y431037D01*
X828973Y431635D01*
D02*
G37*
G36*
X213535Y436347D02*
X212035D01*
X210649Y435773D01*
X209589Y434713D01*
X209015Y433327D01*
Y431827D01*
X209589Y430442D01*
X210649Y429381D01*
X211712Y428941D01*
X211715Y428924D01*
Y427180D01*
X211712Y427163D01*
X210649Y426723D01*
X209589Y425662D01*
X209015Y424277D01*
Y422777D01*
X209589Y421391D01*
X210649Y420331D01*
X211712Y419891D01*
X211715Y419874D01*
Y418130D01*
X211712Y418113D01*
X210649Y417673D01*
X209589Y416613D01*
X209015Y415227D01*
Y413727D01*
X209589Y412341D01*
X210649Y411281D01*
X212035Y410707D01*
X213535D01*
X214921Y411281D01*
X215981Y412341D01*
X216555Y413727D01*
Y415227D01*
X215981Y416613D01*
X214921Y417673D01*
X213858Y418113D01*
X213855Y418130D01*
Y419874D01*
X213858Y419891D01*
X214921Y420331D01*
X215981Y421391D01*
X216555Y422777D01*
Y424277D01*
X215981Y425662D01*
X214921Y426723D01*
X213858Y427163D01*
X213855Y427180D01*
Y428924D01*
X213858Y428941D01*
X214921Y429381D01*
X215981Y430442D01*
X216555Y431827D01*
Y433327D01*
X215981Y434713D01*
X214921Y435773D01*
X213535Y436347D01*
D02*
G37*
G36*
X293449Y414324D02*
X291933D01*
X290533Y413744D01*
X289461Y412672D01*
X288881Y411271D01*
Y409756D01*
X289461Y408355D01*
X290533Y407284D01*
X291933Y406704D01*
X293449D01*
X294849Y407284D01*
X295921Y408355D01*
X296501Y409756D01*
Y411271D01*
X295921Y412672D01*
X294849Y413744D01*
X293449Y414324D01*
D02*
G37*
G36*
X778173Y418935D02*
X775864D01*
X773633Y418337D01*
X771634Y417183D01*
X770001Y415550D01*
X768846Y413550D01*
X768249Y411319D01*
Y409010D01*
X768846Y406780D01*
X770001Y404780D01*
X771634Y403147D01*
X773633Y401992D01*
X775864Y401395D01*
X778173D01*
X780404Y401992D01*
X782403Y403147D01*
X784036Y404780D01*
X785191Y406780D01*
X785788Y409010D01*
Y411319D01*
X785191Y413550D01*
X784036Y415550D01*
X782403Y417183D01*
X780404Y418337D01*
X778173Y418935D01*
D02*
G37*
G36*
X782019Y392885D02*
Y389765D01*
X785138D01*
X784646Y390618D01*
X782871Y392392D01*
X782019Y392885D01*
D02*
G37*
G36*
X772019D02*
X771166Y392392D01*
X769391Y390618D01*
X768899Y389765D01*
X772019D01*
Y392885D01*
D02*
G37*
G36*
X828973Y406235D02*
X826664D01*
X824433Y405637D01*
X822434Y404482D01*
X820801Y402850D01*
X819646Y400850D01*
X819048Y398619D01*
Y396310D01*
X819646Y394080D01*
X820801Y392080D01*
X822434Y390447D01*
X824433Y389292D01*
X826664Y388695D01*
X828973D01*
X831204Y389292D01*
X833203Y390447D01*
X834836Y392080D01*
X835991Y394080D01*
X836589Y396310D01*
Y398619D01*
X835991Y400850D01*
X834836Y402850D01*
X833203Y404482D01*
X831204Y405637D01*
X828973Y406235D01*
D02*
G37*
G36*
X785138Y379765D02*
X782019D01*
Y376645D01*
X782871Y377137D01*
X784646Y378912D01*
X785138Y379765D01*
D02*
G37*
G36*
X772019D02*
X768899D01*
X769391Y378912D01*
X771166Y377137D01*
X772019Y376645D01*
Y379765D01*
D02*
G37*
G36*
X688714Y390284D02*
X686405D01*
X684174Y389686D01*
X682175Y388531D01*
X680542Y386898D01*
X679387Y384899D01*
X678790Y382668D01*
Y380359D01*
X679387Y378129D01*
X680542Y376129D01*
X682175Y374496D01*
X684174Y373341D01*
X686405Y372744D01*
X688714D01*
X690945Y373341D01*
X692944Y374496D01*
X694577Y376129D01*
X695732Y378129D01*
X696330Y380359D01*
Y382668D01*
X695732Y384899D01*
X694577Y386898D01*
X692944Y388531D01*
X690945Y389686D01*
X688714Y390284D01*
D02*
G37*
G36*
X623679Y389169D02*
X604139D01*
Y369629D01*
X623679D01*
Y389169D01*
D02*
G37*
G36*
X618909Y363274D02*
Y358999D01*
X623183D01*
X622337Y360466D01*
X620376Y362427D01*
X618909Y363274D01*
D02*
G37*
G36*
X608909D02*
X607442Y362427D01*
X605481Y360466D01*
X604634Y358999D01*
X608909D01*
Y363274D01*
D02*
G37*
G36*
X623183Y348999D02*
X618909D01*
Y344725D01*
X620376Y345572D01*
X622337Y347533D01*
X623183Y348999D01*
D02*
G37*
G36*
X608909D02*
X604634D01*
X605481Y347533D01*
X607442Y345572D01*
X608909Y344725D01*
Y348999D01*
D02*
G37*
G36*
X807400Y360143D02*
X805091D01*
X802860Y359546D01*
X800861Y358391D01*
X799228Y356758D01*
X798073Y354758D01*
X797476Y352528D01*
Y350219D01*
X798073Y347988D01*
X799228Y345988D01*
X800861Y344356D01*
X802860Y343201D01*
X805091Y342603D01*
X807400D01*
X809631Y343201D01*
X811630Y344356D01*
X813263Y345988D01*
X814418Y347988D01*
X815015Y350219D01*
Y352528D01*
X814418Y354758D01*
X813263Y356758D01*
X811630Y358391D01*
X809631Y359546D01*
X807400Y360143D01*
D02*
G37*
G36*
X374011Y350680D02*
X372312D01*
X370743Y350029D01*
X369542Y348828D01*
X368891Y347259D01*
Y345560D01*
X369542Y343991D01*
X370743Y342790D01*
X372312Y342140D01*
X374011D01*
X375580Y342790D01*
X376781Y343991D01*
X377431Y345560D01*
Y347259D01*
X376781Y348828D01*
X375580Y350029D01*
X374011Y350680D01*
D02*
G37*
G36*
X344990Y350233D02*
X343291D01*
X341722Y349583D01*
X340521Y348382D01*
X339870Y346812D01*
Y345114D01*
X340521Y343544D01*
X341722Y342343D01*
X343291Y341693D01*
X344990D01*
X346559Y342343D01*
X347760Y343544D01*
X348410Y345114D01*
Y346812D01*
X347760Y348382D01*
X346559Y349583D01*
X344990Y350233D01*
D02*
G37*
G36*
X381849Y334470D02*
X380151D01*
X378581Y333820D01*
X377380Y332619D01*
X376730Y331049D01*
Y329351D01*
X377380Y327781D01*
X378581Y326580D01*
X380151Y325930D01*
X381849D01*
X383419Y326580D01*
X384620Y327781D01*
X385270Y329351D01*
Y331049D01*
X384620Y332619D01*
X383419Y333820D01*
X381849Y334470D01*
D02*
G37*
G36*
X356449D02*
X354751D01*
X353181Y333820D01*
X351980Y332619D01*
X351330Y331049D01*
Y329351D01*
X351980Y327781D01*
X353181Y326580D01*
X354751Y325930D01*
X356449D01*
X358019Y326580D01*
X359220Y327781D01*
X359870Y329351D01*
Y331049D01*
X359220Y332619D01*
X358019Y333820D01*
X356449Y334470D01*
D02*
G37*
G36*
X204049D02*
X202351D01*
X200781Y333820D01*
X199580Y332619D01*
X198930Y331049D01*
Y329351D01*
X199580Y327781D01*
X200781Y326580D01*
X202351Y325930D01*
X204049D01*
X205619Y326580D01*
X206820Y327781D01*
X207470Y329351D01*
Y331049D01*
X206820Y332619D01*
X205619Y333820D01*
X204049Y334470D01*
D02*
G37*
G36*
X178649D02*
X176951D01*
X175381Y333820D01*
X174180Y332619D01*
X173530Y331049D01*
Y329351D01*
X174180Y327781D01*
X175381Y326580D01*
X176951Y325930D01*
X178649D01*
X180219Y326580D01*
X181420Y327781D01*
X182070Y329351D01*
Y331049D01*
X181420Y332619D01*
X180219Y333820D01*
X178649Y334470D01*
D02*
G37*
G36*
X340683Y334173D02*
X338984D01*
X337415Y333523D01*
X336214Y332322D01*
X335564Y330752D01*
Y329054D01*
X336214Y327484D01*
X337415Y326283D01*
X338984Y325633D01*
X340683D01*
X342252Y326283D01*
X343453Y327484D01*
X344104Y329054D01*
Y330752D01*
X343453Y332322D01*
X342252Y333523D01*
X340683Y334173D01*
D02*
G37*
G36*
X615195Y338369D02*
X612623D01*
X610138Y337704D01*
X607910Y336417D01*
X606091Y334598D01*
X604805Y332370D01*
X604139Y329885D01*
Y327313D01*
X604805Y324828D01*
X606091Y322600D01*
X607910Y320781D01*
X610138Y319495D01*
X612623Y318829D01*
X615195D01*
X617680Y319495D01*
X619908Y320781D01*
X621727Y322600D01*
X623013Y324828D01*
X623679Y327313D01*
Y329885D01*
X623013Y332370D01*
X621727Y334598D01*
X619908Y336417D01*
X617680Y337704D01*
X615195Y338369D01*
D02*
G37*
G36*
X369100Y319203D02*
X367401D01*
X365831Y318553D01*
X364630Y317352D01*
X363980Y315782D01*
Y314084D01*
X364630Y312514D01*
X365831Y311313D01*
X367401Y310663D01*
X369100D01*
X370669Y311313D01*
X371870Y312514D01*
X372520Y314084D01*
Y315782D01*
X371870Y317352D01*
X370669Y318553D01*
X369100Y319203D01*
D02*
G37*
G36*
X178196Y318959D02*
X176497D01*
X174928Y318309D01*
X173727Y317108D01*
X173076Y315538D01*
Y313839D01*
X173727Y312270D01*
X174928Y311069D01*
X176497Y310419D01*
X178196D01*
X179765Y311069D01*
X180966Y312270D01*
X181616Y313839D01*
Y315538D01*
X180966Y317108D01*
X179765Y318309D01*
X178196Y318959D01*
D02*
G37*
G36*
X341939Y318653D02*
X340240D01*
X338671Y318003D01*
X337470Y316802D01*
X336820Y315233D01*
Y313534D01*
X337470Y311964D01*
X338671Y310763D01*
X340240Y310113D01*
X341939D01*
X343508Y310763D01*
X344710Y311964D01*
X345360Y313534D01*
Y315233D01*
X344710Y316802D01*
X343508Y318003D01*
X341939Y318653D01*
D02*
G37*
G36*
X205019Y318253D02*
X203321D01*
X201751Y317603D01*
X200550Y316402D01*
X199900Y314832D01*
Y313134D01*
X200550Y311564D01*
X201751Y310363D01*
X203321Y309713D01*
X205019D01*
X206589Y310363D01*
X207790Y311564D01*
X208440Y313134D01*
Y314832D01*
X207790Y316402D01*
X206589Y317603D01*
X205019Y318253D01*
D02*
G37*
G36*
X833347Y318049D02*
X830972D01*
X828678Y317434D01*
X826621Y316246D01*
X824942Y314567D01*
X823755Y312510D01*
X823140Y310216D01*
Y307841D01*
X823755Y305547D01*
X824942Y303490D01*
X826621Y301811D01*
X828678Y300623D01*
X830972Y300009D01*
X833347D01*
X835641Y300623D01*
X837698Y301811D01*
X839378Y303490D01*
X840565Y305547D01*
X841180Y307841D01*
Y310216D01*
X840565Y312510D01*
X839378Y314567D01*
X837698Y316246D01*
X835641Y317434D01*
X833347Y318049D01*
D02*
G37*
G36*
X807947D02*
X805572D01*
X803278Y317434D01*
X801221Y316246D01*
X799542Y314567D01*
X798354Y312510D01*
X797740Y310216D01*
Y307841D01*
X798354Y305547D01*
X799542Y303490D01*
X801221Y301811D01*
X803278Y300623D01*
X805572Y300009D01*
X807947D01*
X810241Y300623D01*
X812298Y301811D01*
X813978Y303490D01*
X815165Y305547D01*
X815780Y307841D01*
Y310216D01*
X815165Y312510D01*
X813978Y314567D01*
X812298Y316246D01*
X810241Y317434D01*
X807947Y318049D01*
D02*
G37*
G36*
X782547D02*
X780172D01*
X777878Y317434D01*
X775821Y316246D01*
X774142Y314567D01*
X772954Y312510D01*
X772340Y310216D01*
Y307841D01*
X772954Y305547D01*
X774142Y303490D01*
X775821Y301811D01*
X777878Y300623D01*
X780172Y300009D01*
X782547D01*
X784841Y300623D01*
X786898Y301811D01*
X788578Y303490D01*
X789765Y305547D01*
X790380Y307841D01*
Y310216D01*
X789765Y312510D01*
X788578Y314567D01*
X786898Y316246D01*
X784841Y317434D01*
X782547Y318049D01*
D02*
G37*
G36*
X764980D02*
X746940D01*
Y300009D01*
X764980D01*
Y318049D01*
D02*
G37*
G36*
X193376Y301810D02*
Y292070D01*
X203117D01*
X202140Y294427D01*
X200441Y296971D01*
X198277Y299134D01*
X195733Y300834D01*
X193376Y301810D01*
D02*
G37*
G36*
X183376D02*
X181019Y300834D01*
X178475Y299134D01*
X176311Y296971D01*
X174612Y294427D01*
X173635Y292070D01*
X183376D01*
Y301810D01*
D02*
G37*
G36*
X203117Y282070D02*
X193376D01*
Y272329D01*
X195733Y273306D01*
X198277Y275005D01*
X200441Y277169D01*
X202140Y279713D01*
X203117Y282070D01*
D02*
G37*
G36*
X183376D02*
X173635D01*
X174612Y279713D01*
X176311Y277169D01*
X178475Y275005D01*
X181019Y273306D01*
X183376Y272329D01*
Y282070D01*
D02*
G37*
G36*
X253376Y277294D02*
Y260570D01*
X270100D01*
X269802Y262069D01*
X268122Y266124D01*
X265684Y269774D01*
X262580Y272877D01*
X258930Y275316D01*
X254875Y276996D01*
X253376Y277294D01*
D02*
G37*
G36*
X243376Y277294D02*
X241877Y276996D01*
X237822Y275316D01*
X234172Y272877D01*
X231068Y269774D01*
X228630Y266124D01*
X226950Y262069D01*
X226652Y260570D01*
X243376D01*
Y277294D01*
D02*
G37*
G36*
X744492Y263470D02*
Y260062D01*
X747900D01*
X747319Y261068D01*
X745498Y262889D01*
X744492Y263470D01*
D02*
G37*
G36*
X649842D02*
Y260062D01*
X653251D01*
X652670Y261068D01*
X650848Y262889D01*
X649842Y263470D01*
D02*
G37*
G36*
X604702D02*
Y260062D01*
X608110D01*
X607529Y261068D01*
X605708Y262889D01*
X604702Y263470D01*
D02*
G37*
G36*
X734492D02*
X733485Y262889D01*
X731664Y261068D01*
X731083Y260062D01*
X734492D01*
Y263470D01*
D02*
G37*
G36*
X639842D02*
X638836Y262889D01*
X637014Y261068D01*
X636433Y260062D01*
X639842D01*
Y263470D01*
D02*
G37*
G36*
X594702D02*
X593695Y262889D01*
X591874Y261068D01*
X591293Y260062D01*
X594702D01*
Y263470D01*
D02*
G37*
G36*
X699351Y261484D02*
Y258075D01*
X702760D01*
X702179Y259082D01*
X700358Y260903D01*
X699351Y261484D01*
D02*
G37*
G36*
X689351D02*
X688345Y260903D01*
X686524Y259082D01*
X685943Y258075D01*
X689351D01*
Y261484D01*
D02*
G37*
G36*
X608110Y250062D02*
X604702D01*
Y246653D01*
X605708Y247234D01*
X607529Y249055D01*
X608110Y250062D01*
D02*
G37*
G36*
X747900D02*
X744492D01*
Y246653D01*
X745498Y247234D01*
X747319Y249055D01*
X747900Y250062D01*
D02*
G37*
G36*
X653251D02*
X649842D01*
Y246653D01*
X650848Y247234D01*
X652670Y249055D01*
X653251Y250062D01*
D02*
G37*
G36*
X734492D02*
X731083D01*
X731664Y249055D01*
X733485Y247234D01*
X734492Y246653D01*
Y250062D01*
D02*
G37*
G36*
X639842D02*
X636433D01*
X637014Y249055D01*
X638836Y247234D01*
X639842Y246653D01*
Y250062D01*
D02*
G37*
G36*
X594702D02*
X591293D01*
X591874Y249055D01*
X593695Y247234D01*
X594702Y246653D01*
Y250062D01*
D02*
G37*
G36*
X702760Y248075D02*
X699351D01*
Y244667D01*
X700358Y245248D01*
X702179Y247069D01*
X702760Y248075D01*
D02*
G37*
G36*
X689351D02*
X685943D01*
X686524Y247069D01*
X688345Y245248D01*
X689351Y244667D01*
Y248075D01*
D02*
G37*
G36*
X270100Y250570D02*
X253376D01*
Y233846D01*
X254875Y234144D01*
X258930Y235824D01*
X262580Y238262D01*
X265684Y241366D01*
X268122Y245015D01*
X269802Y249070D01*
X270100Y250570D01*
D02*
G37*
G36*
X243376D02*
X226652D01*
X226950Y249070D01*
X228630Y245015D01*
X231068Y241366D01*
X234172Y238262D01*
X237822Y235824D01*
X241877Y234144D01*
X243376Y233846D01*
Y250570D01*
D02*
G37*
G36*
X503855Y211355D02*
X500323D01*
Y207822D01*
X503855D01*
Y211355D01*
D02*
G37*
G36*
X490323D02*
X486791D01*
Y207822D01*
X490323D01*
Y211355D01*
D02*
G37*
G36*
X546346Y210592D02*
X544300D01*
X542324Y210063D01*
X540552Y209040D01*
X539106Y207593D01*
X538083Y205822D01*
X537553Y203846D01*
Y201800D01*
X538083Y199823D01*
X539106Y198052D01*
X540552Y196605D01*
X542324Y195582D01*
X544300Y195053D01*
X546346D01*
X548322Y195582D01*
X550094Y196605D01*
X551541Y198052D01*
X552564Y199823D01*
X553093Y201800D01*
Y203846D01*
X552564Y205822D01*
X551541Y207593D01*
X550094Y209040D01*
X548322Y210063D01*
X546346Y210592D01*
D02*
G37*
G36*
X503855Y197823D02*
X500323D01*
Y194291D01*
X503855D01*
Y197823D01*
D02*
G37*
G36*
X490323D02*
X486791D01*
Y194291D01*
X490323D01*
Y197823D01*
D02*
G37*
G36*
X250495Y205090D02*
X246257D01*
X242099Y204263D01*
X238183Y202641D01*
X234658Y200285D01*
X231660Y197288D01*
X229305Y193763D01*
X227683Y189847D01*
X226856Y185689D01*
Y181450D01*
X227683Y177293D01*
X229305Y173376D01*
X231660Y169852D01*
X234658Y166854D01*
X238183Y164499D01*
X242099Y162877D01*
X246257Y162050D01*
X250495D01*
X254653Y162877D01*
X258570Y164499D01*
X262094Y166854D01*
X265092Y169852D01*
X267447Y173376D01*
X269069Y177293D01*
X269896Y181450D01*
Y185689D01*
X269069Y189847D01*
X267447Y193763D01*
X265092Y197288D01*
X262094Y200285D01*
X258570Y202641D01*
X254653Y204263D01*
X250495Y205090D01*
D02*
G37*
G36*
X748512Y175281D02*
X730471D01*
Y157241D01*
X748512D01*
Y175281D01*
D02*
G37*
G36*
X653862D02*
X635822D01*
Y157241D01*
X653862D01*
Y175281D01*
D02*
G37*
G36*
X608722D02*
X590682D01*
Y157241D01*
X608722D01*
Y175281D01*
D02*
G37*
G36*
X193376Y166810D02*
Y157070D01*
X203117D01*
X202140Y159427D01*
X200441Y161971D01*
X198277Y164134D01*
X195733Y165834D01*
X193376Y166810D01*
D02*
G37*
G36*
X183376D02*
X181019Y165834D01*
X178475Y164134D01*
X176311Y161971D01*
X174612Y159427D01*
X173635Y157070D01*
X183376D01*
Y166810D01*
D02*
G37*
G36*
X703371Y173295D02*
X685331D01*
Y155255D01*
X703371D01*
Y173295D01*
D02*
G37*
G36*
X203117Y147070D02*
X193376D01*
Y137329D01*
X195733Y138306D01*
X198277Y140005D01*
X200441Y142169D01*
X202140Y144713D01*
X203117Y147070D01*
D02*
G37*
G36*
X183376D02*
X173635D01*
X174612Y144713D01*
X176311Y142169D01*
X178475Y140005D01*
X181019Y138306D01*
X183376Y137329D01*
Y147070D01*
D02*
G37*
G36*
X426411Y95552D02*
Y89834D01*
X432129D01*
X430839Y92069D01*
X428645Y94262D01*
X426411Y95552D01*
D02*
G37*
G36*
X416411D02*
X414177Y94262D01*
X411983Y92069D01*
X410693Y89834D01*
X416411D01*
Y95552D01*
D02*
G37*
G36*
X262871Y95367D02*
X256839D01*
Y89335D01*
X262871D01*
Y95367D01*
D02*
G37*
G36*
X246839D02*
X240807D01*
Y89335D01*
X246839D01*
Y95367D01*
D02*
G37*
G36*
X699639Y97811D02*
X697066D01*
X694582Y97146D01*
X692354Y95859D01*
X690535Y94040D01*
X689249Y91812D01*
X688583Y89328D01*
Y86755D01*
X689249Y84270D01*
X690535Y82043D01*
X692354Y80224D01*
X694582Y78937D01*
X697066Y78271D01*
X699639D01*
X702124Y78937D01*
X704352Y80224D01*
X706171Y82043D01*
X707457Y84270D01*
X708123Y86755D01*
Y89328D01*
X707457Y91812D01*
X706171Y94040D01*
X704352Y95859D01*
X702124Y97146D01*
X699639Y97811D01*
D02*
G37*
G36*
X649639D02*
X647066D01*
X644582Y97146D01*
X642354Y95859D01*
X640535Y94040D01*
X639249Y91812D01*
X638583Y89328D01*
Y86755D01*
X639249Y84270D01*
X640535Y82043D01*
X642354Y80224D01*
X644582Y78937D01*
X647066Y78271D01*
X649639D01*
X652124Y78937D01*
X654352Y80224D01*
X656171Y82043D01*
X657457Y84270D01*
X658123Y86755D01*
Y89328D01*
X657457Y91812D01*
X656171Y94040D01*
X654352Y95859D01*
X652124Y97146D01*
X649639Y97811D01*
D02*
G37*
G36*
X599639D02*
X597067D01*
X594582Y97146D01*
X592354Y95859D01*
X590535Y94040D01*
X589249Y91812D01*
X588583Y89328D01*
Y86755D01*
X589249Y84270D01*
X590535Y82043D01*
X592354Y80224D01*
X594582Y78937D01*
X597067Y78271D01*
X599639D01*
X602124Y78937D01*
X604352Y80224D01*
X606171Y82043D01*
X607457Y84270D01*
X608123Y86755D01*
Y89328D01*
X607457Y91812D01*
X606171Y94040D01*
X604352Y95859D01*
X602124Y97146D01*
X599639Y97811D01*
D02*
G37*
G36*
X558122D02*
X538582D01*
Y78271D01*
X558122D01*
Y97811D01*
D02*
G37*
G36*
X432129Y79834D02*
X426411D01*
Y74117D01*
X428645Y75406D01*
X430839Y77600D01*
X432129Y79834D01*
D02*
G37*
G36*
X416411D02*
X410693D01*
X411983Y77600D01*
X414177Y75406D01*
X416411Y74117D01*
Y79834D01*
D02*
G37*
G36*
X303991Y94605D02*
X301287D01*
X298675Y93905D01*
X296333Y92553D01*
X294421Y90641D01*
X293069Y88299D01*
X292369Y85687D01*
Y82983D01*
X293069Y80371D01*
X294421Y78029D01*
X296333Y76117D01*
X298675Y74765D01*
X301287Y74065D01*
X303991D01*
X306603Y74765D01*
X308945Y76117D01*
X310857Y78029D01*
X312209Y80371D01*
X312909Y82983D01*
Y85687D01*
X312209Y88299D01*
X310857Y90641D01*
X308945Y92553D01*
X306603Y93905D01*
X303991Y94605D01*
D02*
G37*
G36*
X472862Y95855D02*
X469960D01*
X467157Y95104D01*
X464644Y93653D01*
X462593Y91601D01*
X461142Y89088D01*
X460391Y86285D01*
Y83384D01*
X461142Y80581D01*
X462593Y78068D01*
X464644Y76016D01*
X467157Y74566D01*
X469960Y73815D01*
X472862D01*
X475664Y74566D01*
X478177Y76016D01*
X480229Y78068D01*
X481680Y80581D01*
X482431Y83384D01*
Y86285D01*
X481680Y89088D01*
X480229Y91601D01*
X478177Y93653D01*
X475664Y95104D01*
X472862Y95855D01*
D02*
G37*
G36*
X376286Y95975D02*
X366536D01*
X364138Y95498D01*
X362106Y94140D01*
X360747Y92107D01*
X360271Y89710D01*
Y79960D01*
X360747Y77562D01*
X362106Y75529D01*
X364138Y74171D01*
X366536Y73694D01*
X376286D01*
X378684Y74171D01*
X380716Y75529D01*
X382074Y77562D01*
X382551Y79960D01*
Y89710D01*
X382074Y92107D01*
X380716Y94140D01*
X378684Y95498D01*
X376286Y95975D01*
D02*
G37*
G36*
X262871Y79335D02*
X256839D01*
Y73303D01*
X262871D01*
Y79335D01*
D02*
G37*
G36*
X246839D02*
X240807D01*
Y73303D01*
X246839D01*
Y79335D01*
D02*
G37*
%LPD*%
D52*
X551319Y682964D02*
D03*
X548353Y88041D02*
D03*
D53*
X501318Y682964D02*
D03*
X451318D02*
D03*
X401319D02*
D03*
X598353Y88041D02*
D03*
X648353D02*
D03*
X698353D02*
D03*
X613909Y328599D02*
D03*
Y353999D02*
D03*
D57*
X595871Y442111D02*
D03*
X533222Y425019D02*
D03*
X585321Y488932D02*
D03*
D58*
X583171Y442111D02*
D03*
D59*
X739492Y255062D02*
D03*
X706207Y708170D02*
D03*
X655407D02*
D03*
X757007D02*
D03*
X604607D02*
D03*
X644842Y255062D02*
D03*
X599702D02*
D03*
X694351Y253075D02*
D03*
X781360Y309029D02*
D03*
X806760D02*
D03*
X832160D02*
D03*
D60*
X739492Y166261D02*
D03*
X706207Y619370D02*
D03*
X655407D02*
D03*
X757007D02*
D03*
X604607D02*
D03*
X644842Y166261D02*
D03*
X599702D02*
D03*
X694351Y164275D02*
D03*
D61*
X545323Y202823D02*
D03*
X543669Y567206D02*
D03*
X701541Y516782D02*
D03*
D62*
X495323Y202823D02*
D03*
X493668Y567206D02*
D03*
D65*
X701541Y466782D02*
D03*
D72*
X533222Y437719D02*
D03*
X585321Y476232D02*
D03*
D73*
X736600Y406400D02*
D03*
X325402Y494995D02*
D03*
X296944Y501846D02*
D03*
X245723Y598656D02*
D03*
X237509Y543861D02*
D03*
X259659Y541703D02*
D03*
X311506Y533521D02*
D03*
X228600Y508000D02*
D03*
X269159Y503455D02*
D03*
X281705Y496673D02*
D03*
X292691Y410514D02*
D03*
X296828Y515022D02*
D03*
X297639Y522097D02*
D03*
X299368Y569691D02*
D03*
X285127Y558637D02*
D03*
X241305Y558413D02*
D03*
D74*
X827819Y549865D02*
D03*
X777019Y537165D02*
D03*
X827819Y524465D02*
D03*
X777019Y511765D02*
D03*
X827819Y499065D02*
D03*
X777019Y486365D02*
D03*
X827819Y473665D02*
D03*
X777019Y460965D02*
D03*
X827819Y448265D02*
D03*
X777019Y435565D02*
D03*
X827819Y422865D02*
D03*
X777019Y410165D02*
D03*
X827819Y397465D02*
D03*
X777019Y384765D02*
D03*
X806245Y351373D02*
D03*
X687560Y381514D02*
D03*
D75*
X373161Y346409D02*
D03*
X344141Y345963D02*
D03*
X368250Y314933D02*
D03*
X341090Y314383D02*
D03*
X339834Y329903D02*
D03*
X381000Y330200D02*
D03*
X355600D02*
D03*
X319431Y614523D02*
D03*
X342097Y598354D02*
D03*
X341795Y616034D02*
D03*
X320575Y547548D02*
D03*
X324145Y554304D02*
D03*
X204170Y313983D02*
D03*
X177346Y314689D02*
D03*
X177800Y330200D02*
D03*
X203200D02*
D03*
D76*
X276134Y534049D02*
D03*
X283634Y529049D02*
D03*
Y539049D02*
D03*
X268633D02*
D03*
Y529049D02*
D03*
X283486Y448675D02*
D03*
Y439624D02*
D03*
X273736Y444145D02*
D03*
X293236D02*
D03*
Y435095D02*
D03*
X273736D02*
D03*
X283486Y430574D02*
D03*
X212785Y414477D02*
D03*
Y423527D02*
D03*
X222535Y419007D02*
D03*
X203035D02*
D03*
Y428057D02*
D03*
X222535D02*
D03*
X212785Y432577D02*
D03*
D87*
X188376Y152070D02*
D03*
Y287070D02*
D03*
D88*
X248376Y255570D02*
D03*
Y183570D02*
D03*
D89*
X185726Y703479D02*
D03*
X853248Y60918D02*
D03*
X854638Y701218D02*
D03*
X185291Y57860D02*
D03*
D90*
X302639Y84335D02*
D03*
X277236Y682964D02*
D03*
D91*
X251839Y84335D02*
D03*
X328036Y682964D02*
D03*
D92*
X421411Y84834D02*
D03*
X471411D02*
D03*
D93*
X371411D02*
D03*
D94*
X613909Y379399D02*
D03*
D95*
X777019Y562565D02*
D03*
D96*
X755960Y309029D02*
D03*
M02*
