G04*
G04 #@! TF.GenerationSoftware,Altium Limited,Altium Designer,25.1.2 (22)*
G04*
G04 Layer_Physical_Order=4*
G04 Layer_Color=16711680*
%FSLAX44Y44*%
%MOMM*%
G71*
G04*
G04 #@! TF.SameCoordinates,94B53329-3CDA-4FED-B36A-321C29857B18*
G04*
G04*
G04 #@! TF.FilePolarity,Positive*
G04*
G01*
G75*
%ADD52R,1.7000X1.7000*%
%ADD53C,1.7000*%
%ADD57C,1.1000*%
%ADD58R,1.1000X1.1000*%
%ADD59C,1.5500*%
%ADD60R,1.5500X1.5500*%
%ADD61C,1.3000*%
%ADD62R,1.3000X1.3000*%
%ADD65R,1.3000X1.3000*%
%ADD72R,1.1000X1.1000*%
%ADD73C,0.5080*%
%ADD74C,1.5000*%
%ADD75C,0.6000*%
%ADD76C,0.5000*%
%ADD82C,0.7000*%
%ADD83C,1.0000*%
%ADD87C,2.7000*%
%ADD88C,4.0500*%
%ADD89C,6.0000*%
%ADD90C,1.8000*%
%ADD91R,1.8000X1.8000*%
%ADD92C,1.9500*%
G04:AMPARAMS|DCode=93|XSize=1.95mm|YSize=1.95mm|CornerRadius=0.4875mm|HoleSize=0mm|Usage=FLASHONLY|Rotation=0.000|XOffset=0mm|YOffset=0mm|HoleType=Round|Shape=RoundedRectangle|*
%AMROUNDEDRECTD93*
21,1,1.9500,0.9750,0,0,0.0*
21,1,0.9750,1.9500,0,0,0.0*
1,1,0.9750,0.4875,-0.4875*
1,1,0.9750,-0.4875,-0.4875*
1,1,0.9750,-0.4875,0.4875*
1,1,0.9750,0.4875,0.4875*
%
%ADD93ROUNDEDRECTD93*%
%ADD94R,1.7000X1.7000*%
%ADD95R,1.5000X1.5000*%
%ADD96R,1.5500X1.5500*%
%ADD97C,0.5000*%
G36*
X736600Y538759D02*
X767911D01*
X768249Y538319D01*
Y536010D01*
X768846Y533780D01*
X770001Y531780D01*
X771634Y530147D01*
X773633Y528993D01*
X775864Y528395D01*
X778173D01*
X780404Y528993D01*
X782403Y530147D01*
X784036Y531780D01*
X785191Y533780D01*
X785788Y536010D01*
Y538319D01*
X786126Y538759D01*
X863600D01*
Y499884D01*
X836589D01*
Y500219D01*
X835991Y502450D01*
X834836Y504450D01*
X833203Y506082D01*
X831204Y507237D01*
X828973Y507835D01*
X826664D01*
X824433Y507237D01*
X822434Y506082D01*
X820801Y504450D01*
X819646Y502450D01*
X819048Y500219D01*
Y499884D01*
X685800D01*
Y635000D01*
X736600D01*
Y538759D01*
D02*
G37*
%LPC*%
G36*
X715989Y629152D02*
X711207D01*
Y624370D01*
X715989D01*
Y629152D01*
D02*
G37*
G36*
X701207D02*
X696425D01*
Y624370D01*
X701207D01*
Y629152D01*
D02*
G37*
G36*
X715989Y614370D02*
X711207D01*
Y609588D01*
X715989D01*
Y614370D01*
D02*
G37*
G36*
X701207D02*
X696425D01*
Y609588D01*
X701207D01*
Y614370D01*
D02*
G37*
G36*
X832819Y532585D02*
Y529465D01*
X835938D01*
X835446Y530318D01*
X833671Y532092D01*
X832819Y532585D01*
D02*
G37*
G36*
X822819D02*
X821966Y532092D01*
X820191Y530318D01*
X819699Y529465D01*
X822819D01*
Y532585D01*
D02*
G37*
G36*
X706541Y523747D02*
Y521782D01*
X708507D01*
X708369Y522021D01*
X706780Y523610D01*
X706541Y523747D01*
D02*
G37*
G36*
X696541D02*
X696303Y523610D01*
X694714Y522021D01*
X694576Y521782D01*
X696541D01*
Y523747D01*
D02*
G37*
G36*
X835938Y519465D02*
X832819D01*
Y516345D01*
X833671Y516837D01*
X835446Y518612D01*
X835938Y519465D01*
D02*
G37*
G36*
X822819D02*
X819699D01*
X820191Y518612D01*
X821966Y516837D01*
X822819Y516345D01*
Y519465D01*
D02*
G37*
G36*
X708507Y511782D02*
X706541D01*
Y509817D01*
X706780Y509955D01*
X708369Y511544D01*
X708507Y511782D01*
D02*
G37*
G36*
X696541D02*
X694576D01*
X694714Y511544D01*
X696303Y509955D01*
X696541Y509817D01*
Y511782D01*
D02*
G37*
G36*
X778173Y520535D02*
X775864D01*
X773633Y519937D01*
X771634Y518783D01*
X770001Y517150D01*
X768846Y515150D01*
X768249Y512919D01*
Y510610D01*
X768846Y508380D01*
X770001Y506380D01*
X771634Y504747D01*
X773633Y503592D01*
X775864Y502995D01*
X778173D01*
X780404Y503592D01*
X782403Y504747D01*
X784036Y506380D01*
X785191Y508380D01*
X785788Y510610D01*
Y512919D01*
X785191Y515150D01*
X784036Y517150D01*
X782403Y518783D01*
X780404Y519937D01*
X778173Y520535D01*
D02*
G37*
%LPD*%
D52*
X551319Y682964D02*
D03*
X548353Y88041D02*
D03*
D53*
X501318Y682964D02*
D03*
X451318D02*
D03*
X401319D02*
D03*
X598353Y88041D02*
D03*
X648353D02*
D03*
X698353D02*
D03*
X613909Y328599D02*
D03*
Y353999D02*
D03*
D57*
X595871Y442111D02*
D03*
X533222Y425019D02*
D03*
X585321Y488932D02*
D03*
D58*
X583171Y442111D02*
D03*
D59*
X739492Y255062D02*
D03*
X706207Y708170D02*
D03*
X655407D02*
D03*
X757007D02*
D03*
X604607D02*
D03*
X644842Y255062D02*
D03*
X599702D02*
D03*
X694351Y253075D02*
D03*
X781360Y309029D02*
D03*
X806760D02*
D03*
X832160D02*
D03*
D60*
X739492Y166261D02*
D03*
X706207Y619370D02*
D03*
X655407D02*
D03*
X757007D02*
D03*
X604607D02*
D03*
X644842Y166261D02*
D03*
X599702D02*
D03*
X694351Y164275D02*
D03*
D61*
X545323Y202823D02*
D03*
X543669Y567206D02*
D03*
X701541Y516782D02*
D03*
D62*
X495323Y202823D02*
D03*
X493668Y567206D02*
D03*
D65*
X701541Y466782D02*
D03*
D72*
X533222Y437719D02*
D03*
X585321Y476232D02*
D03*
D73*
X736600Y406400D02*
D03*
X325402Y494995D02*
D03*
X296944Y501846D02*
D03*
X245723Y598656D02*
D03*
X237509Y543861D02*
D03*
X259659Y541703D02*
D03*
X311506Y533521D02*
D03*
X228600Y508000D02*
D03*
X269159Y503455D02*
D03*
X281705Y496673D02*
D03*
X292691Y410514D02*
D03*
X296828Y515022D02*
D03*
X297639Y522097D02*
D03*
X299368Y569691D02*
D03*
X285127Y558637D02*
D03*
X241305Y558413D02*
D03*
D74*
X827819Y549865D02*
D03*
X777019Y537165D02*
D03*
X827819Y524465D02*
D03*
X777019Y511765D02*
D03*
X827819Y499065D02*
D03*
X777019Y486365D02*
D03*
X827819Y473665D02*
D03*
X777019Y460965D02*
D03*
X827819Y448265D02*
D03*
X777019Y435565D02*
D03*
X827819Y422865D02*
D03*
X777019Y410165D02*
D03*
X827819Y397465D02*
D03*
X777019Y384765D02*
D03*
X806245Y351373D02*
D03*
X687560Y381514D02*
D03*
D75*
X373161Y346409D02*
D03*
X344141Y345963D02*
D03*
X368250Y314933D02*
D03*
X341090Y314383D02*
D03*
X339834Y329903D02*
D03*
X381000Y330200D02*
D03*
X355600D02*
D03*
X319431Y614523D02*
D03*
X342097Y598354D02*
D03*
X341795Y616034D02*
D03*
X320575Y547548D02*
D03*
X324145Y554304D02*
D03*
X204170Y313983D02*
D03*
X177346Y314689D02*
D03*
X177800Y330200D02*
D03*
X203200D02*
D03*
D76*
X276134Y534049D02*
D03*
X283634Y529049D02*
D03*
Y539049D02*
D03*
X268633D02*
D03*
Y529049D02*
D03*
X283486Y448675D02*
D03*
Y439624D02*
D03*
X273736Y444145D02*
D03*
X293236D02*
D03*
Y435095D02*
D03*
X273736D02*
D03*
X283486Y430574D02*
D03*
X212785Y414477D02*
D03*
Y423527D02*
D03*
X222535Y419007D02*
D03*
X203035D02*
D03*
Y428057D02*
D03*
X222535D02*
D03*
X212785Y432577D02*
D03*
D82*
X788550Y352904D02*
X804715D01*
X778489Y355600D02*
X785854D01*
X804715Y352904D02*
X806245Y351373D01*
X785854Y355600D02*
X788550Y352904D01*
X708141Y285252D02*
X778489Y355600D01*
X708141Y247363D02*
Y285252D01*
X669715Y208937D02*
X708141Y247363D01*
X642378Y208937D02*
X669715D01*
X599702Y166261D02*
X642378Y208937D01*
X775488Y437095D02*
X777019Y435565D01*
X763073Y454242D02*
X775488Y441828D01*
X574421Y454242D02*
X763073D01*
X536815Y425785D02*
X537210Y426179D01*
X533222Y425019D02*
X533987Y425785D01*
X775488Y437095D02*
Y441828D01*
X546358Y426179D02*
X574421Y454242D01*
X533987Y425785D02*
X536815D01*
X537210Y426179D02*
X546358D01*
X371411Y154274D02*
X596427Y379289D01*
Y441555D01*
X371411Y84834D02*
Y154274D01*
D83*
X705135Y105742D02*
X876392Y276999D01*
X830922Y359038D02*
X876392Y313568D01*
Y276999D02*
Y313568D01*
X680505Y105742D02*
X705135D01*
X644842Y141405D02*
X680505Y105742D01*
X644842Y141405D02*
Y166261D01*
X777019Y410165D02*
X806921D01*
X834048Y382425D02*
X875722Y424099D01*
X812779Y391235D02*
X821589Y382425D01*
X741717Y701836D02*
Y702312D01*
X706207Y708170D02*
X735860D01*
X741717Y702312D01*
X806921Y410165D02*
X812779Y404307D01*
X830922Y359038D02*
Y382425D01*
X875722Y424099D02*
Y567832D01*
X812779Y391235D02*
Y404307D01*
X741717Y701836D02*
X875722Y567832D01*
X821589Y382425D02*
X834048D01*
D87*
X188376Y152070D02*
D03*
Y287070D02*
D03*
D88*
X248376Y255570D02*
D03*
Y183570D02*
D03*
D89*
X185726Y703479D02*
D03*
X853248Y60918D02*
D03*
X854638Y701218D02*
D03*
X185291Y57860D02*
D03*
D90*
X302639Y84335D02*
D03*
X277236Y682964D02*
D03*
D91*
X251839Y84335D02*
D03*
X328036Y682964D02*
D03*
D92*
X421411Y84834D02*
D03*
X471411D02*
D03*
D93*
X371411D02*
D03*
D94*
X613909Y379399D02*
D03*
D95*
X777019Y562565D02*
D03*
D96*
X755960Y309029D02*
D03*
D97*
X802893Y474139D02*
X827819Y499065D01*
X717676Y474139D02*
X771510D01*
X782527D02*
X802893D01*
X771824Y473825D02*
X782213D01*
X782527Y474139D01*
X771510D02*
X771824Y473825D01*
X709279Y482536D02*
X717676Y474139D01*
X593830Y482536D02*
X709279D01*
X589687Y478392D02*
X593830Y482536D01*
X585321Y476232D02*
X587481Y478392D01*
X589687D01*
M02*
