M48
;Layer_Color=9474304
;FILE_FORMAT=4:4
METRIC,LZ
;TYPE=PLATED
T01F00S00C0.2000
T02F00S00C0.2032
T03F00S00C0.3000
T04F00S00C0.6000
T05F00S00C0.8000
T06F00S00C0.9000
T07F00S00C1.0000
T08F00S00C1.0200
T09F00S00C1.1000
T10F00S00C1.3000
T11F00S00C1.8000
T12F00S00C2.7000
;TYPE=NON_PLATED
T13F00S00C3.2000
%
T01
X00203035Y00419007
Y00428057
X00212785Y00432577
Y00423527
Y00414477
X00222535Y00419007
Y00428057
X00273736Y00435095
Y00444145
X00283486Y00439624
Y00448675
X00293236Y00444145
Y00435095
X00283486Y00430574
X00283634Y00529049
Y00539049
X00276134Y00534049
X00268633Y00539049
Y00529049
T02
X002286Y00508
X00237509Y00543861
X00241305Y00558413
X00259659Y00541703
X00285127Y00558637
X00299368Y00569691
X00311506Y00533521
X00297639Y00522097
X00296828Y00515022
X00296944Y00501846
X00281705Y00496673
X00269159Y00503455
X00325402Y00494995
X00292691Y00410514
X00245723Y00598656
X007366Y004064
T03
X0034109Y00314383
X00339834Y00329903
X003556Y003302
X00381
X0036825Y00314933
X0020417Y00313983
X002032Y003302
X001778
X00177346Y00314689
X00344141Y00345963
X00373161Y00346409
X00320575Y00547548
X00324145Y00554304
X00342097Y00598354
X00341795Y00616034
X00319431Y00614523
T04
X00533222Y00425019
Y00437719
X00583171Y00442111
X00595871
X00585321Y00476232
Y00488932
T05
X00495323Y00202823
X00545323
X00543669Y00567206
X00493668
X00701541Y00516782
Y00466782
T06
X0068756Y00381514
X00777019Y00384765
Y00410165
Y00435565
Y00460965
Y00486365
Y00511765
Y00537165
Y00562565
X00827819Y00549865
Y00524465
Y00499065
Y00473665
Y00448265
Y00422865
Y00397465
X00806245Y00351373
T07
X00644842Y00166261
X00694351Y00164275
X00739492Y00166261
Y00255062
X00694351Y00253075
X00644842Y00255062
X00599702
Y00166261
X00604607Y0061937
Y0070817
X00655407
X00706207
X00757007
Y0061937
X00706207
X00655407
T08
X0075596Y00309029
X0078136
X0080676
X0083216
T09
X00648353Y00088041
X00698353
X00598353
X00548353
X00613909Y00328599
Y00353999
Y00379399
X00551319Y00682964
X00501318
X00451318
X00401319
T10
X00251839Y00084335
X00302639
X00371411Y00084834
X00421411
X00471411
X00328036Y00682964
X00277236
T11
X00188376Y0015207
Y0028707
T12
X00248376Y0018357
Y0025557
T13
X00853248Y00060918
X00185291Y0005786
X00185726Y00703479
X00854638Y00701218
M30
